<?xml version="1.0" encoding="UTF-8"?>
<svg id="b" data-name="Capa 2" xmlns="http://www.w3.org/2000/svg" viewBox="0 0 193.82 132.83">
  <g id="c" data-name="Capa 2">
    <path d="M193.48,132.83s-7.92-.05-12.53-.05-7.99-.98-16.56-3.77c-13.85-4.29-33.42-14.72-46.53-24.71-20.81-15.17-64.67-63.03-99.73-70.22-6.61-.5-12.83,4.41-14.82,10.25-.26.27-.47-.1-.63-.32-.6-.97-1.83-4.17-2.35-7.01-1.77-7,3.91-11.73,10.4-13.52,27.31-8,46.92,20.42,62.82,34.83,12.31,11.23,22.37,20.39,33.86,29.25,8.16,6.32,13.11,9.33,15.83,10.72,1.38.68,1.91.92,2.82,1.2.08.02.12.02.09-.05-.06-.21-.36-.47-.53-.74-1.77-2.31-9.66-12.66-15-22.27-2.26-3.9-3.64-7.7-5.52-11.61-3.58-7.35-14.89-18.24-17.71-21.03-.18-.18-.31-.32-.38-.4-.05-.06-.07-.1-.04-.1.02,0,.08.03.17.08,2.67,1.45,13.74,9.8,17.78,9.71.96-.2,1.22-1.08,1.39-2.33C107.5,27.47,127.27,2.26,164.67.27c2.59-.06,17.85-.21,20.58-.21s8.57-.06,8.57-.06l-.34,132.83ZM154.95,8.08c-11.48,0-42.03,19.33-42.03,50.67,0,14.6,9.41,24.67,12.33,28.41-1.21-5.46-.48-15.87-.48-15.87,3.68,15.49,9.79,25.75,19.17,33.4s20.83,10.54,25.4,10.54,8.13-2.92,8.13-12.32-6.48-15.11-12.57-15.11-8,2.29-8,6.86,3.35,8.16,6.4,8.16,2.22-6.92,2.22-6.92c0,0,4,1.52,4,5.24,0,1.3.44,6.06-4.73,6.06-11.78-1.14-14.75-13.4-14.75-18.34,0-9.31,8.49-7.31,8.49-7.31,0,0-11.4-26.63-7.24-29.46s15.24,18.98,15.24,18.98l.13-10.22s8.63,3.43,8.63,3.43c0,0-12.41-19.62-24.32-19.62-7.52,0-9.2,9.3-7.4,15.24s5.79,13.51,5.79,13.51c0,0-17.68-5.22-17.68-24.4s31.25-27.52,31.25-34.06-2.92-6.86-8-6.86ZM24.19,30.7c5.52,1.52,26.06,12.49,26.06,12.49,0,0-20.08-18.08-30.81-18.08-13.11,0-14.11,9.1-14.11,9.1,0,0,10.86-6.24,18.86-3.51Z" style="fill: #000e18;"/>
  </g>
</svg>