<svg id="SvgjsSvg1022" width="288" height="288" xmlns="http://www.w3.org/2000/svg" version="1.1" xmlns:xlink="http://www.w3.org/1999/xlink" xmlns:svgjs="http://svgjs.com/svgjs"><defs id="SvgjsDefs1023"></defs><g id="SvgjsG1024"><svg xmlns="http://www.w3.org/2000/svg" enable-background="new 0 0 1035 1612" viewBox="0 0 1035 1612" width="288" height="288"><path fill="#ed1c24" d="M275,19l741,742c12.7,12.7,19,27.7,19,45s-6.3,32.3-19,45l-741,742c-12.7,12.7-27.8,19-45.5,19	s-32.8-6.3-45.5-19L19,1427c-12.7-12.7-19-27.7-19-45s6.3-32.3,19-45l531-531L19,275C6.3,262.3,0,247.3,0,230c0-17.3,6.3-32.3,19-45
	L184,19c12.7-12.7,27.8-19,45.5-19S262.3,6.3,275,19z" class="color47d18c svgShape"></path></svg></g></svg>