<svg version="1.2" xmlns="http://www.w3.org/2000/svg" viewBox="0 0 1000 928" width="1000" height="928">
	<title>New Project</title>
	<style>
		.s0 { fill: #e6cc20 } 
		.s1 { fill: #2060e6 } 
	</style>
	<g id="Layer 1">
		<path id="Shape 2 copy" fill-rule="evenodd" class="s0" d="m929.5 157.9c-55.6-40.9-150.5-58.1-213.9-76.3-50.9-11.5 45.4-56.2 41.8-62.9-3.6-6.7-60.9-2.4-129.7 19.1-68.8 21.4-135.1 27.6-194.4 26.5-52.9-3.9 24.7-57.7 17.3-63.3-7.5-5.7-62.2 14-104.6 39-42.4 25.1-123.1 46.4-159.6 56-62.3 8.1 3.7-73.5-5.1-76.6-8.8-3.1-58.4 27.7-79.6 70.8-21.2 43.1-68.1 76.2-86.8 112.2-99.6 192 327.6 720.6 455.6 723.6 128 3 407.5-476.7 326.2-608.1-81.3-131.5-511.4-155.2-582.7-39.1-71.3 116.2 142.9 475.2 258.2 477.1 115.2 1.9 234-332.4 195.9-387.3-38.1-54.8-308.6-69.5-335.3-19.1-26.8 50.4 65.5 266.1 133 266.1 67.4 0 97.7-127.6 97.2-161.4-4.2-54.6-78.5-35.6-88.1-45.3-9.7-9.6-14.3-36.7-14.3-36.7 0 0-5.7 28.1-14.3 36.7-8.6 8.7-38.9 16.5-38.9 16.5 0 0 25.6 4.2 38.9 16.5 14.6 13.5 14.3 32.8 14.3 32.8 0 0 6.1-25.1 14.3-32.8 8.1-7.6 48.5-16 59.3 12.1 10.8 28.1-24.7 118.7-68.4 118.7-43.8 0-111.1-117.4-96.6-200.4 7.4-42.4 224.1-28.6 254.2 22.8 30.1 51.3-65.3 289.1-150.3 301.6-85.1 12.4-262.9-312.7-214.8-392.8 48.2-80.2 425.8-55 485 37.3 59.2 92.3-155.4 530.3-269.4 526.4-114.1-3.9-466.1-471.1-414.6-613.5 25.5-70.3 201.4-131.5 391.7-131.6 195.2-0.1 354.8 23 397.9 55.2 61.6 43.2 81.7 111.4 81.7 111.4 0 0 0.4-56.8 14.5-60.5 14.1-3.7 42.8 29 54.9 41 0 0-14.9-70.9-70.5-111.7z"/>
		<path id="Shape 3" fill-rule="evenodd" class="s1" d="m154.8 45.2c-2.5-1.1-30.3 23.2-33.4 28.2-3.2 5.1-7.1 30.5-3.9 32.4 3.4 1.9 22.9-16.1 25.5-20 2.6-4.5 14.8-39.4 11.8-40.6z"/>
		<path id="Shape 3 copy" fill-rule="evenodd" class="s1" d="m419.3 17.6c-2.1-1.7-35.7 13.6-40.1 17.4-4.5 4-15.6 27.2-13 29.9 2.6 2.9 26.5-8.7 30.1-11.8 3.8-3.5 25.5-33.5 23-35.5z"/>
		<path id="Shape 3 copy 2" fill-rule="evenodd" class="s1" d="m716.6 31.2c-1.8-2.7-41.3 0.2-47.7 3-6.4 2.9-35.4 21.4-34.6 25.8 0.9 5.4 40.1 8.2 46 6.6 5.5-1.6 38.4-32.2 36.3-35.4z"/>
		<path id="Shape 4" fill-rule="evenodd" class="s1" d="m460.6 408.9l-14.3 16.5 14.3 16.5 14.3-16.5"/>
	</g>
</svg>