<?xml version="1.0" encoding="UTF-8"?>
<svg id="b" data-name="Capa 2" xmlns="http://www.w3.org/2000/svg" viewBox="0 0 200 370">
  <g id="c" data-name="Capa 1">
    <path d="M20,100.13s2.53,56.83,2.53,99.87S0,320,0,320c0,0,20.37,50,99.98,50s100.02-50,100.02-50c0,0-22.03-81.86-22.03-120s2.29-100.13,2.29-100.13L99.93,0,20,100.13Z"/>
    <path d="M100,66.87l-40.87,53.27s1.64,16.83,1.64,73.46-20.76,116.39-20.76,116.39l60.02-30.05,59.98,30.05s-20.95-54.29-20.95-116.21.95-73.79.95-73.79l-40-53.13Z" style="fill: #fff;"/>
  </g>
</svg>