<?xml version="1.0" encoding="UTF-8" standalone="no" ?>
<!DOCTYPE svg PUBLIC "-//W3C//DTD SVG 1.1//EN" "http://www.w3.org/Graphics/SVG/1.1/DTD/svg11.dtd">
<svg xmlns="http://www.w3.org/2000/svg" xmlns:xlink="http://www.w3.org/1999/xlink" version="1.1" width="1200" height="230" viewBox="0 0 1200 230" xml:space="preserve">
<desc>Created with Fabric.js 4.2.0</desc>
<defs>
</defs>
<rect x="0" y="0" width="100%" height="100%" fill="transparent"></rect>
<g transform="matrix(Infinity NaN NaN Infinity 0 0)" id="2c482767-12e0-4033-b43a-ca394305ff9b"  >
</g>
<g transform="matrix(1 0 0 1 600 115)" id="0d187af6-7ea6-47f2-b505-e9d7fc8ae08b"  >
<rect style="stroke: none; stroke-width: 1; stroke-dasharray: none; stroke-linecap: butt; stroke-dashoffset: 0; stroke-linejoin: miter; stroke-miterlimit: 4; fill: rgb(255,255,255); fill-opacity: 0; fill-rule: nonzero; opacity: 1;" vector-effect="non-scaling-stroke"  x="-600" y="-115" rx="0" ry="0" width="1200" height="230" />
</g>
<g transform="matrix(3.07 0 0 3.07 600 115)"  >
<path style="stroke: rgb(0,0,0); stroke-width: 0; stroke-dasharray: none; stroke-linecap: butt; stroke-dashoffset: 0; stroke-linejoin: miter; stroke-miterlimit: 4; fill: rgb(255,190,0); fill-rule: nonzero; opacity: 1;" vector-effect="non-scaling-stroke"  transform=" translate(-191.5, -32.5)" d="M 200.89 0.73 C 202.6 0.17099999999999993 205.64999999999998 -0.3860000000000001 208.97699999999998 0.362 C 212.30599999999998 1.1099999999999999 218.69099999999997 5.804 223.039 12.403 C 226.464 17.603 237.527 38.546 237.48299999999998 37.166000000000004 C 237.438 35.786 237.51799999999997 34.168000000000006 237.51799999999997 32.929 L 237.51799999999997 18.573 C 237.515 17.609 237.503 16.773 237.48299999999998 16.063000000000002 C 237.45799999999997 15.253000000000002 237.43499999999997 14.563000000000002 237.41199999999998 13.990000000000002 C 237.38699999999997 13.419000000000002 237.35199999999998 12.847000000000001 237.30499999999998 12.276000000000002 C 237.20899999999997 11.466000000000001 237.009 10.716000000000001 236.70199999999997 10.025000000000002 C 236.39399999999998 9.333000000000002 235.90799999999996 8.727000000000002 235.24699999999996 8.203000000000003 C 234.39399999999995 7.528000000000003 233.53699999999995 7.746000000000003 232.33799999999997 7.715000000000003 L 232.05499999999998 7.422000000000003 L 231.84199999999998 4.639000000000003 L 231.98399999999998 4.3770000000000024 C 232.314 4.3770000000000024 232.78799999999998 4.399000000000003 233.40399999999997 4.442000000000003 C 234.01799999999997 4.485000000000003 234.64599999999996 4.529000000000003 235.28499999999997 4.572000000000003 C 235.92399999999998 4.617000000000003 235.62499999999997 4.575000000000003 236.23999999999998 4.619000000000002 C 236.855 4.663000000000002 237.32799999999997 4.684000000000003 237.65999999999997 4.684000000000003 L 243.26599999999996 4.601000000000003 L 244.68599999999995 4.601000000000003 C 245.29999999999995 4.601000000000003 245.25999999999996 4.625000000000003 245.92299999999994 4.573000000000003 C 246.58499999999995 4.520000000000003 247.22299999999996 4.468000000000003 247.83899999999994 4.416000000000003 C 248.45299999999995 4.364000000000003 248.92699999999994 4.311000000000003 249.25899999999993 4.259000000000003 L 249.32899999999992 4.521000000000003 L 249.18899999999994 7.2470000000000026 L 248.83299999999994 7.527000000000003 C 247.69999999999993 7.565000000000003 246.58699999999993 7.459000000000003 245.74999999999994 8.189000000000004 C 245.36999999999995 8.519000000000004 244.97999999999993 8.946000000000003 244.57899999999995 9.467000000000004 C 244.17599999999996 9.990000000000004 243.90399999999994 10.912000000000004 243.76199999999994 12.239000000000004 C 243.71499999999995 12.902000000000005 243.62799999999996 20.941000000000003 243.65599999999995 21.716000000000005 C 243.74399999999994 24.105000000000004 243.60099999999994 31.078000000000003 243.62399999999994 38.476000000000006 L 243.62799999999993 39.42300000000001 C 243.64199999999994 42.45300000000001 243.55399999999992 47.31700000000001 243.99099999999993 49.93900000000001 C 244.07199999999992 50.42900000000001 246.81099999999992 56.037000000000006 246.43499999999992 56.354000000000006 C 245.69899999999993 56.97500000000001 244.6529999999999 56.470000000000006 242.40699999999993 55.462 C 240.1599999999999 54.454 233.57799999999992 49.572 233.57799999999992 49.572 C 233.57799999999992 49.572 234.4679999999999 48.728 234.8149999999999 48.325 C 235.1639999999999 47.921 235.3419999999999 47.322 235.0399999999999 46.854 C 234.73799999999991 46.385999999999996 233.9249999999999 46.464 233.4599999999999 46.812 C 233.0599999999999 47.111999999999995 231.4199999999999 48.317 231.4199999999999 48.317 L 214.7699999999999 17.855 C 214.7549999999999 24.451 214.7699999999999 38.366 214.8099999999999 45.058 C 214.82099999999988 47.054 214.7229999999999 49.356 217.5679999999999 49.576 C 218.1819999999999 49.624 218.9629999999999 49.646 219.9109999999999 49.646 L 220.26599999999988 49.931 L 220.47899999999987 52.632999999999996 L 220.33599999999987 52.70399999999999 C 216.84499999999986 52.70399999999999 212.24299999999988 52.681999999999995 208.71099999999987 52.660999999999994 C 212.31099999999986 58.775999999999996 216.47699999999986 62.035 221.39499999999987 60.68299999999999 C 226.45199999999986 59.291999999999994 226.15499999999986 60.68299999999999 225.36199999999988 61.675999999999995 C 224.56799999999987 62.669 219.60899999999987 66.94 211.4779999999999 63.959999999999994 C 203.3459999999999 60.98 188.56999999999988 36.946 188.56999999999988 36.946 L 179.04999999999987 36.745999999999995 L 179.04999999999987 43.797999999999995 C 179.04999999999987 43.797999999999995 177.06599999999986 44.394999999999996 177.66099999999986 44.89099999999999 C 178.25599999999986 45.386999999999986 178.95099999999985 45.28799999999999 178.95099999999985 45.28799999999999 C 178.95099999999985 45.28799999999999 178.35499999999985 50.84999999999999 183.51199999999986 50.94899999999999 L 183.61199999999985 52.63699999999999 L 175.97499999999985 52.63699999999999 C 173.59499999999986 52.63699999999999 167.44699999999986 55.21999999999999 166.75199999999984 55.31999999999999 C 166.05899999999983 55.41899999999999 165.95999999999984 53.233999999999995 166.05899999999983 52.83599999999999 C 166.15799999999982 52.43899999999999 167.04999999999984 52.43899999999999 167.9429999999998 51.94299999999999 C 168.8349999999998 51.44599999999999 170.52099999999982 50.45299999999999 170.52099999999982 45.18899999999999 L 170.52099999999982 20.955 C 170.52099999999982 19.067 169.92599999999982 17.479 167.84299999999982 17.378999999999998 C 165.76099999999983 17.279999999999998 167.34799999999981 14.399999999999999 167.34799999999981 14.399999999999999 L 182.6199999999998 14.399999999999999 C 182.6199999999998 14.399999999999999 182.7199999999998 14.597999999999999 182.8179999999998 15.193999999999999 C 182.9179999999998 15.790999999999999 182.71899999999982 17.378999999999998 182.71899999999982 17.378999999999998 C 182.71899999999982 17.378999999999998 180.83399999999983 16.883 179.74399999999983 18.769 C 178.65299999999982 20.656999999999996 178.85099999999983 23.14 178.85099999999983 25.325 L 178.85099999999983 32.774 C 178.85099999999983 32.774 192.04099999999983 34.065 192.04099999999983 25.722 C 192.04099999999983 17.379000000000005 192.14099999999982 13.804000000000002 187.57799999999983 10.725000000000001 C 183.01699999999983 7.646000000000001 173.39699999999982 8.341000000000001 167.24799999999982 9.533000000000001 C 161.09999999999982 10.725000000000001 156.43899999999982 12.016000000000002 154.2579999999998 10.526000000000002 C 152.07599999999982 9.036000000000001 150.4889999999998 3.7730000000000015 150.58799999999982 3.3760000000000012 C 150.68799999999982 2.978000000000001 151.67799999999983 3.176000000000001 152.57099999999983 3.872000000000001 C 153.46399999999983 4.567000000000001 158.75999999999982 6.709000000000001 166.32899999999984 5.222000000000001 C 173.99599999999984 3.7140000000000013 181.00699999999983 1.9720000000000013 187.03699999999984 4.791000000000001 C 192.27799999999985 7.239000000000001 192.43699999999984 7.646000000000001 192.43699999999984 7.646000000000001 C 192.43699999999984 7.646000000000001 192.13999999999984 8.938 192.63599999999985 9.036000000000001 C 193.13199999999986 9.136000000000001 193.92499999999984 8.838000000000001 193.92499999999984 8.838000000000001 C 193.92499999999984 8.838000000000001 200.27099999999984 13.407 200.96599999999984 21.154000000000003 C 201.57799999999983 27.991000000000003 194.32199999999983 33.370000000000005 194.32199999999983 33.370000000000005 L 196.80099999999985 36.35 C 196.80099999999985 36.35 196.00799999999984 37.938 196.99899999999985 39.13 C 197.99099999999984 40.322 199.47899999999984 39.230000000000004 199.47899999999984 39.230000000000004 C 199.47899999999984 39.230000000000004 203.32699999999986 43.959 206.73699999999985 49.368 C 207.07499999999985 49.168 207.38299999999984 48.874 207.69099999999986 48.443000000000005 C 208.58999999999986 47.182 208.65599999999986 43.45 208.65599999999986 40.926 L 208.65599999999986 33.82 C 208.65199999999987 27.823 208.62599999999986 20.174 208.62099999999987 15.489 L 208.62099999999987 13.907 C 208.63999999999987 9.451 209.02699999999987 8.547 205.82199999999986 5.15 C 204.04899999999986 3.2990000000000004 200.83199999999985 2.5040000000000004 199.96599999999987 2.4520000000000004 C 198.92999999999986 2.3900000000000006 199.33399999999986 1.2370000000000003 200.88999999999987 0.7290000000000003 z M 77.037 4.731 C 77.367 4.731 77.256 6.505 78.013 6.505 C 78.77000000000001 6.505 80.20700000000001 4.731 81.013 4.731 L 84.988 4.731 L 85.129 4.802 L 84.91600000000001 7.504 L 84.632 7.787999999999999 C 83.96900000000001 7.787999999999999 83.272 7.823999999999999 82.53800000000001 7.895 C 81.80400000000002 7.965999999999999 81.22500000000001 8.168 80.799 8.498999999999999 C 80.41900000000001 8.831999999999999 80.054 9.258 79.69900000000001 9.778999999999998 C 79.34400000000001 10.300999999999998 79.14200000000001 11.225999999999999 79.09500000000001 12.551999999999998 C 79.04800000000002 13.120999999999999 79.01200000000001 13.677999999999997 78.98900000000002 14.221999999999998 C 78.96500000000002 14.767999999999997 78.94200000000002 15.407999999999998 78.91800000000002 16.141999999999996 C 78.89400000000002 16.876999999999995 78.88300000000002 17.730999999999995 78.88300000000002 18.701999999999995 L 78.88300000000002 26.723999999999997 C 79.69000000000003 26.694999999999997 82.83100000000002 25.08 84.06300000000002 24.108999999999995 C 86.40700000000001 22.256999999999994 88.76500000000001 19.891999999999996 90.85500000000002 17.388999999999996 C 91.20500000000001 16.970999999999997 92.42000000000002 17.056999999999995 92.75300000000001 16.632999999999996 C 92.98300000000002 16.339999999999996 92.33400000000002 15.537999999999995 92.55500000000002 15.242999999999995 C 93.37500000000001 14.152999999999995 94.13100000000001 13.055999999999996 94.80000000000003 11.982999999999995 C 95.27300000000002 11.225999999999996 95.51000000000002 10.702999999999996 95.51000000000002 10.418999999999995 C 95.51000000000002 9.897999999999994 95.53700000000002 9.316999999999995 95.19000000000003 9.174999999999995 C 94.64500000000002 8.950999999999995 93.82500000000003 9.389999999999995 93.33400000000003 9.169999999999995 C 92.84200000000003 8.950999999999995 92.89700000000003 6.489999999999995 92.89700000000003 6.270999999999995 C 92.89700000000003 6.051999999999994 95.08200000000004 5.942999999999994 95.90100000000004 6.051999999999994 C 96.72100000000003 6.161999999999995 98.46800000000005 5.996999999999995 98.52300000000004 6.270999999999995 C 98.57700000000004 6.544999999999995 98.79600000000003 7.200999999999994 99.34200000000004 7.200999999999994 C 99.88800000000005 7.200999999999994 100.32500000000005 6.216999999999994 103.60200000000005 6.216999999999994 C 104.36700000000005 6.216999999999994 106.27900000000005 6.175999999999994 107.86200000000005 6.106999999999994 C 109.11900000000006 6.051999999999994 108.95500000000006 6.762999999999994 109.01000000000005 7.637999999999994 C 109.06400000000005 8.513999999999994 109.08800000000005 9.131999999999994 107.99600000000005 9.296999999999993 C 106.74800000000005 9.482999999999993 103.56500000000005 10.626999999999994 102.29000000000005 11.826999999999993 C 100.31000000000004 13.689999999999992 99.06200000000005 14.731999999999992 97.03600000000004 16.888999999999992 C 95.92400000000005 18.07399999999999 94.84600000000005 19.211999999999993 93.80600000000004 20.301999999999992 L 91.21000000000004 23.851999999999993 C 92.67000000000003 26.52199999999999 94.00600000000004 28.988999999999994 95.68700000000004 31.664999999999992 C 97.36700000000005 34.343999999999994 98.86600000000004 37.706999999999994 101.02700000000004 40.90899999999999 C 101.97300000000004 41.998999999999995 101.86700000000005 43.99399999999999 102.78900000000004 44.82299999999999 C 103.16600000000004 45.16199999999999 102.21300000000005 46.04299999999999 103.10200000000005 46.339999999999996 C 104.31800000000004 46.74699999999999 103.17800000000004 47.74999999999999 103.91200000000005 48.303999999999995 C 104.70000000000005 48.89699999999999 106.27600000000005 49.074 106.54900000000005 49.318999999999996 C 108.44200000000005 51.010999999999996 112.97100000000005 56.766 116.35100000000006 57.849 C 119.73100000000005 58.931999999999995 123.25700000000006 59.068 129.54300000000006 56.089 C 130.87000000000006 55.535 130.71300000000005 56.227 130.78100000000006 58.018 C 130.82600000000005 59.196 131.05600000000007 60.498 130.16100000000006 60.704 C 126.16100000000006 61.629 117.73900000000006 64.481 109.52800000000006 59.533 C 98.13400000000006 52.667 94.17200000000007 44.653 88.72000000000006 36.05 C 87.91500000000005 34.779999999999994 87.11000000000006 33.497 86.30600000000005 32.20099999999999 C 85.50100000000005 30.90599999999999 84.79100000000005 29.786999999999992 84.17700000000005 28.84499999999999 C 83.20900000000005 29.554999999999993 79.95700000000005 31.263999999999992 78.99700000000004 31.850999999999992 C 78.99700000000004 33.77299999999999 78.94400000000005 36.94799999999999 78.94400000000005 38.151999999999994 C 78.94400000000005 39.218999999999994 78.89400000000005 40.10099999999999 78.91800000000005 40.74099999999999 C 78.94200000000005 41.38099999999999 77.87800000000004 41.83599999999999 77.77000000000005 42.53099999999999 C 77.66400000000006 43.224999999999994 79.04800000000006 43.21799999999999 79.09500000000006 43.83299999999999 C 79.19000000000005 45.22999999999999 79.40200000000006 46.19299999999999 79.73500000000006 46.721999999999994 C 80.06500000000005 47.24999999999999 80.42000000000006 47.65899999999999 80.79900000000006 47.94799999999999 C 81.22500000000007 48.33299999999999 81.78100000000006 48.52499999999999 82.46800000000006 48.52499999999999 L 84.63200000000006 48.52499999999999 L 84.91600000000007 48.81699999999999 L 85.12900000000006 51.58299999999999 L 84.98800000000006 51.65299999999999 L 83.35500000000006 51.65299999999999 C 79.67900000000006 51.65299999999999 77.02200000000006 51.904999999999994 71.79900000000006 52.83699999999999 C 67.90700000000007 53.53099999999999 65.34800000000007 55.34699999999999 64.76200000000006 54.81199999999999 C 64.17500000000005 54.27899999999999 64.76200000000006 51.50199999999999 64.76200000000006 51.50199999999999 C 64.76200000000006 51.50199999999999 66.33700000000006 51.25199999999999 67.00100000000006 51.18199999999999 C 67.66300000000007 51.11099999999999 68.65400000000007 50.48699999999999 69.40100000000007 49.63299999999999 C 70.67400000000006 48.17499999999999 70.86100000000006 45.97399999999999 70.86100000000006 43.83299999999999 C 70.86100000000006 43.50299999999999 70.87200000000006 43.11099999999999 70.89600000000006 42.660999999999994 C 70.92000000000006 42.21099999999999 70.94300000000005 41.653999999999996 70.96800000000006 40.989999999999995 C 70.99100000000006 40.327 71.00300000000006 39.520999999999994 71.00300000000006 38.57299999999999 L 71.00300000000006 36.282999999999994 C 71.00300000000006 35.88399999999999 71.85300000000005 34.69899999999999 71.85300000000005 34.25399999999999 L 71.00300000000006 33.39999999999999 L 71.00300000000006 22.668 C 71.00300000000006 21.701999999999998 72.01300000000006 20.68 72.01300000000006 19.891 C 72.01300000000006 19.323999999999998 71.00300000000006 19.711 71.00300000000006 19.235 C 71.00300000000006 16.775 71.03000000000006 14.812 70.86100000000006 12.552999999999999 C 70.76600000000006 11.273 70.54100000000007 10.348999999999998 70.18700000000005 9.78 C 69.83200000000005 9.210999999999999 69.46500000000006 8.785 69.08700000000006 8.5 C 68.66000000000005 8.122 68.11600000000006 7.909 67.45400000000006 7.86 C 66.79000000000006 7.814 66.08100000000006 7.79 65.32400000000007 7.79 L 64.96900000000007 7.505 L 64.75600000000007 4.803 L 64.89800000000007 4.733 z M 12.083 0.73 C 13.793 0.172 16.84 -0.387 20.17 0.362 C 23.498 1.1099999999999999 29.883000000000003 5.804 34.230000000000004 12.403 C 37.656000000000006 17.603 48.71900000000001 38.546 48.675000000000004 37.166000000000004 C 48.63100000000001 35.786 48.71 34.168000000000006 48.71 32.928000000000004 L 48.71 18.994 C 48.71 17.851 48.698 16.874 48.675000000000004 16.064 C 48.650000000000006 15.254 48.627 14.563 48.604000000000006 13.991 C 48.57900000000001 13.419 48.544000000000004 12.847 48.49700000000001 12.276 C 48.40200000000001 11.466 48.20100000000001 10.716 47.894000000000005 10.025 C 47.586000000000006 9.334 47.101000000000006 8.727 46.43900000000001 8.203 C 45.58700000000001 7.528999999999999 44.729000000000006 7.744999999999999 43.531000000000006 7.715 L 43.24700000000001 7.422 L 43.034000000000006 4.638999999999999 L 43.17600000000001 4.376999999999999 C 43.50700000000001 4.376999999999999 43.98000000000001 4.398999999999999 44.59600000000001 4.441999999999999 C 45.21000000000001 4.485999999999999 45.83800000000001 4.528999999999999 46.47700000000001 4.571999999999999 C 47.116000000000014 4.616999999999999 46.817000000000014 4.574999999999999 47.43200000000001 4.619999999999999 C 48.04700000000001 4.661999999999999 48.52000000000001 4.683999999999999 48.85200000000001 4.683999999999999 L 54.45800000000001 4.601999999999999 L 55.878000000000014 4.601999999999999 C 56.49200000000001 4.601999999999999 56.451000000000015 4.624999999999999 57.115000000000016 4.571999999999999 C 57.777000000000015 4.52 58.41500000000001 4.468999999999999 59.03100000000001 4.4159999999999995 C 59.646000000000015 4.364 60.119000000000014 4.310999999999999 60.451000000000015 4.2589999999999995 L 60.521000000000015 4.520999999999999 L 60.38000000000002 7.246999999999999 L 60.02500000000002 7.526999999999999 C 58.89200000000002 7.5649999999999995 57.77900000000002 7.459 56.94200000000002 8.189 C 56.563000000000024 8.519 56.17200000000002 8.946 55.77100000000002 9.468 C 55.36800000000002 9.99 55.09700000000002 10.913 54.95500000000002 12.239 C 54.90700000000002 12.902000000000001 54.82000000000002 20.941000000000003 54.84800000000002 21.716 C 54.93600000000002 24.106 54.79300000000002 31.078000000000003 54.816000000000024 38.476 L 54.82000000000002 39.423 C 54.83500000000002 42.453 54.74600000000002 47.317 55.18300000000002 49.939 C 55.264000000000024 50.429 58.00300000000002 56.037 57.627000000000024 56.354 C 56.89100000000003 56.975 55.84500000000003 56.47 53.599000000000025 55.461999999999996 C 51.352000000000025 54.452999999999996 44.77100000000003 49.571999999999996 44.77100000000003 49.571999999999996 C 44.77100000000003 49.571999999999996 45.65900000000003 48.727999999999994 46.00800000000003 48.324999999999996 C 46.35600000000003 47.922 46.534000000000034 47.321999999999996 46.23200000000003 46.854 C 45.93000000000003 46.385 45.117000000000026 46.464 44.65200000000003 46.812 C 44.25200000000003 47.111999999999995 42.61200000000003 48.317 42.61200000000003 48.317 L 25.96200000000003 17.855 C 25.948000000000032 24.451 25.96200000000003 38.366 26.00200000000003 45.058 C 26.01300000000003 47.054 25.916000000000032 49.356 28.76000000000003 49.576 C 29.37500000000003 49.624 30.15600000000003 49.646 31.10300000000003 49.646 L 31.45800000000003 49.931 L 31.67100000000003 52.632999999999996 L 31.529000000000032 52.70399999999999 C 27.89700000000003 52.70399999999999 23.06600000000003 52.67999999999999 19.48500000000003 52.657999999999994 L 19.43500000000003 52.68299999999999 C 12.90200000000003 52.67799999999999 7.56700000000003 52.666999999999994 1.047000000000029 52.68299999999999 L 0.905000000000029 52.611999999999995 L 1.118000000000029 49.91 L 1.473000000000029 49.626 C 3.060000000000029 49.663 3.7530000000000285 49.009 4.564000000000029 47.635 C 4.87100000000003 47.114999999999995 5.120000000000029 45.162 5.310000000000029 43.835 C 5.310000000000029 43.503 5.320000000000029 43.112 5.345000000000029 42.662 C 5.368000000000029 42.211999999999996 5.392000000000029 41.655 5.415000000000029 40.991 C 5.44000000000003 40.328 5.451000000000029 39.522 5.451000000000029 38.574 L 5.451000000000029 19.236 C 5.451000000000029 18.099 5.440000000000029 17.128 5.416000000000029 16.321 C 5.392000000000029 15.515 5.368000000000029 14.828000000000001 5.345000000000029 14.259000000000002 C 5.321000000000029 13.691000000000003 5.2850000000000295 13.122000000000002 5.239000000000029 12.553000000000003 C 5.143000000000029 11.321000000000003 4.92900000000003 10.420000000000002 4.5990000000000295 9.851000000000003 C 4.268000000000029 9.283000000000003 3.9130000000000296 8.833000000000002 3.5350000000000295 8.501000000000003 C 3.1090000000000293 8.169000000000002 2.5650000000000297 7.967000000000003 1.9020000000000294 7.896000000000003 C 1.2390000000000294 7.826000000000002 1.3240000000000296 7.789000000000002 0.5680000000000294 7.789000000000002 L 0.2130000000000294 7.505000000000003 L 0 4.803 L 0.142 4.733 C 3.6759999999999997 4.702999999999999 7.466 4.779999999999999 11.024999999999999 4.733 C 11.354999999999999 4.733 15.453 9.259 15.097999999999999 9.78 C 14.198999999999998 11.1 14.494 11.644 14.441999999999998 13.254 C 14.418 14.012 14.475999999999999 20.500999999999998 14.475999999999999 21.591 C 14.475999999999999 22.682000000000002 10.889 23.761000000000003 10.889 25.591 C 10.889 27.421 14.049 29.048000000000002 14.049 29.048000000000002 C 14.064 33.313 13.972 38.326 14.155 42.234 C 14.224 43.704 14.375 46.804 14.899999999999999 47.635000000000005 C 15.229999999999999 48.15800000000001 15.585999999999999 48.584 15.964999999999998 48.915000000000006 C 16.459 49.345000000000006 16.935 49.516000000000005 17.455 49.58500000000001 C 17.99 49.40400000000001 18.436999999999998 49.06900000000001 18.883 48.443000000000005 C 19.782 47.18300000000001 19.848 43.45 19.848 40.92700000000001 L 19.848 33.82 C 19.843999999999998 27.823999999999998 19.817999999999998 20.174 19.813 15.489 L 19.813 13.907 C 19.831999999999997 9.451 20.218999999999998 8.547 17.012999999999998 5.151 C 15.240999999999998 3.2989999999999995 12.025999999999998 2.5029999999999997 11.157999999999998 2.452 C 10.121999999999998 2.39 10.525999999999998 1.2369999999999999 12.082999999999998 0.7289999999999999 z M 270.99 4.438 C 271.622 3.9319999999999995 277.56 4.438 277.56 4.438 L 284.823 19.494 C 284.823 19.494 282.739 19.747 282.739 20.695999999999998 C 282.739 21.645999999999997 283.686 22.656999999999996 285.70799999999997 23.037 C 286.328 24.436999999999998 286.426 28.179 288.361 29.363 C 288.929 29.712 290.067 29.743 291.58299999999997 29.933 C 291.82 30.707 291.09999999999997 31.72 290.99999999999994 32.463 C 290.90999999999997 33.129 290.73799999999994 34.1 290.38999999999993 34.529 C 289.9959999999999 35.013000000000005 289.72099999999995 34.851000000000006 289.4719999999999 35.141000000000005 C 289.0019999999999 35.68900000000001 288.9289999999999 36.069 288.9289999999999 36.069 C 289.6769999999999 37.969 291.02699999999993 40.67 291.3299999999999 42.522000000000006 C 291.5349999999999 43.776 291.13999999999993 45.30500000000001 291.13999999999993 45.30500000000001 C 292.1499999999999 47.01400000000001 293.9199999999999 48.46900000000001 295.2459999999999 49.038000000000004 C 296.5729999999999 49.608000000000004 297.39399999999995 49.481 297.39399999999995 49.481 L 297.45699999999994 52.714 L 279.20199999999994 52.714 L 279.05999999999995 52.644 L 279.27299999999997 49.942 L 279.55699999999996 49.657000000000004 C 280.69599999999997 49.657000000000004 282.941 48.801 283.26699999999994 48.67400000000001 L 283.30699999999996 48.659000000000006 C 283.30699999999996 48.659000000000006 281.98099999999994 38.03000000000001 279.70799999999997 36.212 L 267.08799999999997 36.809000000000005 C 266.08599999999996 38.86600000000001 265.388 40.88100000000001 264.92499999999995 42.484 C 264.49799999999993 43.954 264.02099999999996 46.056000000000004 264.02099999999996 46.672000000000004 C 264.02099999999996 47.809000000000005 264.25699999999995 48.592000000000006 264.73099999999994 49.017 C 265.2029999999999 49.444 266.0559999999999 49.657000000000004 267.28599999999994 49.657000000000004 L 267.64099999999996 49.942 L 267.854 52.644 L 267.712 52.714 L 254.44 52.714 C 251.648 52.714 249.173 54.147999999999996 248.816 54.032 C 248.458 53.916 248.656 52.721999999999994 248.656 52.721999999999994 C 248.656 52.721999999999994 248.812 50.96999999999999 248.889 50.425 C 248.967 49.881 250.567 49.974999999999994 251.18200000000002 49.881 C 251.79600000000002 49.786 252.66500000000002 49.551 253.28000000000003 49.219 C 253.89500000000004 48.888 254.82500000000002 48.879 255.41700000000003 48.285000000000004 C 256.701 47.00000000000001 260.064 38.663000000000004 261.454 35.43600000000001 C 262.844 32.21000000000001 269.35 15.319000000000006 269.35 15.319000000000006 C 269.35 15.319000000000006 270.975 14.129000000000007 271.49800000000005 12.219000000000007 C 272.0210000000001 10.309000000000006 268.7180000000001 9.111000000000006 269.16 7.7270000000000065 C 269.16 7.7270000000000065 270.36 4.944000000000006 270.992 4.4370000000000065 z M 136.46 4.438 C 137.092 3.9319999999999995 143.03 4.438 143.03 4.438 L 150.294 19.494 C 150.294 19.494 148.209 19.747 148.209 20.695999999999998 C 148.209 21.645999999999997 149.157 22.656999999999996 151.179 23.037 C 151.799 24.436999999999998 151.897 28.179 153.831 29.363 C 154.39999999999998 29.712 155.53699999999998 29.743 157.053 29.933 C 157.29 30.707 156.571 31.72 156.471 32.463 C 156.381 33.129 156.208 34.1 155.859 34.529 C 155.467 35.013000000000005 155.191 34.851000000000006 154.943 35.141000000000005 C 154.473 35.68900000000001 154.4 36.069 154.4 36.069 C 155.148 37.969 156.497 40.67 156.8 42.522000000000006 C 157.006 43.776 156.61100000000002 45.30500000000001 156.61100000000002 45.30500000000001 C 157.621 47.01400000000001 159.39000000000001 48.46900000000001 160.716 49.038000000000004 C 162.043 49.608000000000004 162.864 49.481 162.864 49.481 L 162.927 52.714 L 144.672 52.714 L 144.53 52.644 L 144.743 49.942 L 145.027 49.657000000000004 C 146.25699999999998 49.657000000000004 148.778 48.659000000000006 148.778 48.659000000000006 C 148.778 48.659000000000006 147.452 38.03000000000001 145.178 36.212 L 132.558 36.809000000000005 C 131.55599999999998 38.86600000000001 130.85899999999998 40.88100000000001 130.39499999999998 42.484 C 129.969 43.954 129.49099999999999 46.056000000000004 129.49099999999999 46.672000000000004 C 129.49099999999999 47.809000000000005 129.72799999999998 48.592000000000006 130.201 49.017 C 130.674 49.444 131.52599999999998 49.657000000000004 132.757 49.657000000000004 L 133.112 49.942 L 133.32399999999998 52.644 L 133.183 52.714 L 119.90799999999999 52.714 C 117.11699999999999 52.714 114.64199999999998 54.147999999999996 114.28399999999999 54.032 C 113.92599999999999 53.916 114.124 52.721999999999994 114.124 52.721999999999994 C 114.124 52.721999999999994 114.28 50.96999999999999 114.35799999999999 50.425 C 114.43599999999999 49.881 116.035 49.974999999999994 116.64999999999999 49.881 C 117.26499999999999 49.786 118.133 49.551 118.749 49.219 C 119.363 48.888 120.29299999999999 48.879 120.886 48.285000000000004 C 122.17 47.00000000000001 125.533 38.663000000000004 126.923 35.43600000000001 C 128.312 32.21000000000001 134.819 15.319000000000006 134.819 15.319000000000006 C 134.819 15.319000000000006 136.44299999999998 14.129000000000007 136.96599999999998 12.219000000000007 C 137.48899999999998 10.309000000000006 134.18599999999998 9.111000000000006 134.629 7.7270000000000065 C 134.629 7.7270000000000065 135.82899999999998 4.944000000000006 136.46099999999998 4.4370000000000065 z M 328.17 4.058 L 328.595 4.27 L 328.88000000000005 4.909999999999999 C 328.88000000000005 4.909999999999999 328.8380000000001 7.851999999999999 329.24800000000005 10.771999999999998 C 329.79100000000005 14.639 330.81200000000007 18.772 330.684 18.951999999999998 C 330.459 19.266 329.338 20.165 328.889 20.523999999999997 C 328.44 20.883999999999997 328.12600000000003 20.839 327.408 19.176 C 326.69 17.512999999999998 324.671 14.636999999999999 323.593 13.108999999999998 C 322.517 11.580999999999998 320.805 10.544999999999998 319.51 10.501999999999999 C 318.495 10.467999999999998 317.723 10.459 316.247 10.456 C 316.2 11.591999999999999 316.164 13.107 316.14 15.001 C 316.116 16.895 316.10499999999996 19.191 316.10499999999996 21.889 L 316.10499999999996 33.537 C 316.10499999999996 34.745 315.67299999999994 34.864 315.23799999999994 35.299 C 314.80299999999994 35.734 314.28799999999995 35.537 314.52599999999995 36.764 C 314.76399999999995 37.992000000000004 315.35599999999994 40.288000000000004 315.989 40.684000000000005 C 316.62199999999996 41.080000000000005 316.71599999999995 43.475 316.86199999999997 44.792 C 317.01199999999994 46.162 317.217 47.114000000000004 317.64199999999994 47.635000000000005 C 318.0679999999999 48.15800000000001 318.4699999999999 48.56 318.84999999999997 48.845000000000006 C 319.44699999999995 49.29200000000001 320.4 49.55500000000001 321.171 49.55500000000001 L 322.414 49.55500000000001 L 322.768 49.839000000000006 L 322.981 52.541000000000004 L 322.84 52.612 L 300.691 52.612 L 300.549 52.541000000000004 L 300.762 49.775000000000006 L 301.117 49.48500000000001 L 302.695 49.48500000000001 C 303.664 49.48500000000001 304.363 49.29500000000001 304.789 48.915000000000006 C 305.167 48.583000000000006 305.544 48.156000000000006 305.924 47.63400000000001 C 306.303 47.11200000000001 306.56399999999996 46.187000000000005 306.705 44.858000000000004 C 306.751 44.527 306.787 44.136 306.811 43.685 C 306.834 43.235 306.858 42.677 306.883 42.012 C 306.906 41.348 306.918 39.513 306.918 38.564 L 306.918 21.984 C 306.918 19.374000000000002 306.89300000000003 17.05 306.848 15.010000000000002 C 306.79900000000004 12.970000000000002 306.75100000000003 11.452000000000002 306.70500000000004 10.456000000000001 L 302.39500000000004 10.456000000000001 C 301.49100000000004 10.456000000000001 300.88700000000006 11.041 299.54100000000005 12.39 C 299.09900000000005 12.833 297.97100000000006 13.873000000000001 297.38700000000006 14.457 C 296.60400000000004 15.242 295.99600000000004 15.401 295.90700000000004 16.3 C 295.90700000000004 16.3 296.086 19.67 295.81700000000006 19.895 C 295.5470000000001 20.12 293.25800000000004 20.3 293.03400000000005 19.94 C 292.92800000000005 19.77 293.51400000000007 16.432000000000002 293.91200000000003 12.930000000000001 L 293.97700000000003 12.345000000000002 C 294.374 8.626000000000003 294.51000000000005 4.910000000000003 294.51000000000005 4.910000000000003 L 294.79300000000006 4.270000000000003 L 295.2200000000001 4.057000000000003 C 295.5970000000001 4.226000000000003 296.4260000000001 4.382000000000003 297.70400000000006 4.5210000000000035 C 298.9820000000001 4.663000000000004 300.37700000000007 4.732000000000004 301.89200000000005 4.732000000000004 L 321.49700000000007 4.732000000000004 C 323.0110000000001 4.732000000000004 324.4070000000001 4.6620000000000035 325.68500000000006 4.522000000000004 C 326.9630000000001 4.382000000000004 327.7900000000001 4.2260000000000035 328.16900000000004 4.057000000000004 z M 369.95300000000003 4.733 L 370.379 5.372 C 370.379 5.372 369.952 8.219999999999999 370.35200000000003 11.126 C 370.752 14.032 372.59400000000005 16.688 372.13500000000005 17.198999999999998 C 371.677 17.709 369.99500000000006 18.779999999999998 369.38500000000005 18.985 C 369.60200000000003 18.628999999999998 367.535 15.388 365.1050000000001 12.809999999999999 C 362.05500000000006 9.575 360.32900000000006 8.012999999999998 356.90100000000007 8.012999999999998 L 350.99100000000004 8.012999999999998 C 348.59600000000006 8.012999999999998 348.35900000000004 9.288999999999998 348.35900000000004 13.024999999999999 C 348.35900000000004 13.588999999999999 348.312 14.245 348.288 14.995 C 348.264 15.745999999999999 348.253 16.660999999999998 348.253 17.739 L 348.253 25.385 L 358.78299999999996 25.385 C 359.68199999999996 25.385 360.45099999999996 25.325000000000003 361.09 25.203000000000003 C 362.34 24.964000000000002 363.178 22.622000000000003 363.185 21.440000000000005 L 363.54 21.013000000000005 L 366.166 21.013000000000005 L 366.45 21.084000000000007 L 366.202 23.928000000000008 C 366.13 24.73400000000001 366.09499999999997 25.65800000000001 366.09499999999997 26.700000000000006 C 366.09499999999997 27.840000000000007 366.13 28.895000000000007 366.202 29.865000000000006 C 366.272 30.838000000000005 366.354 34.55500000000001 366.45 35.693000000000005 L 366.166 35.763000000000005 L 363.469 35.763000000000005 L 363.185 35.483000000000004 C 363.185 34.272000000000006 363.335 31.827000000000005 362.084 30.573000000000004 C 360.947 29.436000000000003 360.095 29.340000000000003 358.617 29.332000000000004 L 348.25300000000004 29.332000000000004 L 348.25300000000004 35.504000000000005 C 348.25600000000003 36.659000000000006 348.26700000000005 37.63 348.28800000000007 38.417 C 348.31200000000007 39.302 348.3350000000001 40.059000000000005 348.3590000000001 40.687000000000005 C 348.3830000000001 41.31700000000001 348.4190000000001 41.911 348.4660000000001 42.46900000000001 C 348.51300000000015 43.02900000000001 348.5600000000001 44.196000000000005 348.60700000000014 44.94100000000001 C 348.65500000000014 45.82600000000001 349.03200000000015 46.77100000000001 349.93200000000013 46.77100000000001 L 358.56400000000014 46.77100000000001 C 358.56400000000014 46.77100000000001 357.5000000000001 48.64800000000001 358.36100000000016 49.05400000000001 C 359.2210000000002 49.46000000000001 360.35200000000015 46.82800000000001 360.35200000000015 46.82800000000001 C 360.35200000000015 46.82800000000001 367.1150000000001 48.42800000000001 375.63000000000017 48.64800000000001 C 379.2280000000002 48.74000000000001 380.2400000000002 48.44500000000001 380.69500000000016 47.93800000000001 C 381.1510000000002 47.43000000000001 382.41700000000014 46.87300000000001 382.7710000000002 48.44500000000001 C 383.12500000000017 50.01700000000001 382.97400000000016 51.437000000000005 382.9230000000002 51.84300000000001 C 382.87300000000016 52.24900000000001 382.97400000000016 52.40100000000001 381.50500000000017 52.40100000000001 L 381.2590000000002 52.40100000000001 C 377.4870000000002 52.38700000000001 337.2370000000002 52.17600000000001 333.5370000000002 52.16900000000001 L 333.3520000000002 52.16900000000001 L 333.2110000000002 52.09800000000001 L 333.4240000000002 49.396000000000015 L 333.7780000000002 49.112000000000016 C 334.5350000000002 49.112000000000016 335.2450000000002 49.076000000000015 335.9080000000002 49.00500000000002 C 336.5710000000002 48.93500000000002 337.1150000000002 48.73300000000002 337.54100000000017 48.40100000000002 C 337.91900000000015 48.070000000000014 338.2860000000002 47.643000000000015 338.6410000000002 47.121000000000016 C 338.9960000000002 46.60100000000001 339.2210000000002 45.16200000000001 339.31500000000017 43.83400000000002 C 339.31500000000017 43.50400000000002 339.32700000000017 43.112000000000016 339.35100000000017 42.661000000000016 C 339.3740000000002 42.21100000000001 339.39700000000016 41.655000000000015 339.42100000000016 40.991000000000014 C 339.44600000000014 40.32700000000001 339.45700000000016 39.52200000000001 339.45700000000016 38.573000000000015 L 339.45700000000016 24.556 C 339.45700000000016 24.333000000000002 339.80300000000017 23.721 340.4510000000002 23.503 C 341.46400000000017 23.161 342.9490000000002 23.173000000000002 342.9490000000002 22.449 C 342.9490000000002 21.263 339.45700000000016 21.927000000000003 339.45700000000016 21.527 L 339.45700000000016 16.32 C 339.45700000000016 15.515 339.44600000000014 14.828 339.42200000000014 14.26 C 339.39700000000016 13.69 339.36200000000014 13.122 339.3150000000001 12.552999999999999 C 339.2200000000001 11.273 338.9950000000001 10.348999999999998 338.64100000000013 9.78 C 338.2860000000001 9.210999999999999 337.91900000000015 8.785 337.5410000000001 8.5 C 337.1150000000001 8.122 336.5710000000001 7.909 335.90800000000013 7.86 C 335.3320000000001 7.82 334.7190000000001 7.797000000000001 334.0720000000001 7.791 C 333.8800000000001 7.789000000000001 333.6870000000001 7.758 333.5050000000001 7.695 L 332.7850000000001 7.4430000000000005 C 332.3560000000001 7.293 332.16100000000006 6.796 332.3730000000001 6.393000000000001 L 333.2110000000001 4.803000000000001 L 333.35200000000015 4.7330000000000005 L 369.95300000000015 4.7330000000000005 z M 139.166 18.79 L 134.212 31.97 L 143.709 31.372999999999998 L 141.322 24.761999999999997 C 141.935 24.099999999999998 141.68200000000002 22.743999999999996 140.564 22.661999999999995 L 139.166 18.789999999999996 z M 273.696 18.79 L 268.74100000000004 31.97 L 278.23900000000003 31.372999999999998 L 275.85200000000003 24.761999999999997 C 276.46400000000006 24.099999999999998 276.21200000000005 22.743999999999996 275.093 22.661999999999995 L 273.696 18.789999999999996 z" stroke-linecap="round" />
</g>
</svg>