<svg xmlns="http://www.w3.org/2000/svg" viewBox="0 0 250.02 249.97"><defs><style>.cls-1,.cls-2{fill:#231f20;}.cls-2{fill-rule:evenodd;}</style></defs><g id="Layer_2" data-name="Layer 2"><path class="cls-1" d="M330.07,154c-8.32-6.69-24.28-18.09-45-24.07a125.64,125.64,0,0,0-64-1.45c-9.58,2.3-32.58,7.73-56.28,30.06.45,6.59,1.7,18.28,1.73,22.3,0,0,61.82-63.92,141.55-23.08Z" transform="translate(-124.93 -125)"/><path class="cls-1" d="M330.07,154a123.58,123.58,0,0,1,30.85,38.12,125.92,125.92,0,0,1-5.43,125c-6.48,1-18.81,2.72-22.75,3.47,0,0,54.36-72.51-1.28-142.72Z" transform="translate(-124.93 -125)"/><path class="cls-1" d="M164.19,341A123.9,123.9,0,0,0,205.72,367a125.69,125.69,0,0,0,63.67,6.39c9.73-1.56,37.64-7.3,61.86-28.43.26-6.56,1-20.26,1.24-24.27,0,0-68.11,65.64-144.45,18.77Z" transform="translate(-124.93 -125)"/><path class="cls-1" d="M164.08,341.1c-7.86-7.76-18-17.74-27.2-37.22A125.58,125.58,0,0,1,125.29,241c.75-9.83,1.91-30.23,18.66-57.21,6.52-.8,18.6-2.26,22.57-2.86,0,0-55.17,64.54-2.19,136.77Z" transform="translate(-124.93 -125)"/></g><g id="Layer_2_copy" data-name="Layer 2 copy"><path class="cls-1" d="M347.78,251.27c-.09-8.35-1.12-23.65-7.77-39.12a98.22,98.22,0,0,0-30.88-39.37A91.71,91.71,0,0,0,263,153.69c-3.76,3.54-10.21,10.1-12.62,12.11,0,0,69.3,5.63,84.2,74.07Z" transform="translate(-124.93 -125)"/><path class="cls-1" d="M347.78,251.27a96.76,96.76,0,0,1-7.72,37.55,98.45,98.45,0,0,1-78.2,58.74c-3.85-3.4-11-10-13.39-12,0,0,70.79-3.14,85.59-71.6Z" transform="translate(-124.93 -125)"/><path class="cls-1" d="M152.49,243.84a96.59,96.59,0,0,0,4.85,38,98.21,98.21,0,0,0,27.74,41.64c5.77,5.11,23.08,19.11,47.87,23.27,4.09-3.1,12.72-9.48,15.28-11.3,0,0-73.46-8.58-83-78Z" transform="translate(-124.93 -125)"/><path class="cls-1" d="M152.34,243.84c.79-8.6,1.79-19.68,9-34.9A98.31,98.31,0,0,1,193.6,170.7c6.31-4.42,19.22-13.84,43.83-17.11,3.72,3.54,10.59,10.12,12.93,12.21,0,0-66.38-1.3-83.73,66.56Z" transform="translate(-124.93 -125)"/></g><g id="Layer_5" data-name="Layer 5"><path class="cls-2" d="M184.11,210.43c10.25.2,30.77,0,30.77,0l-3,5.92H186.47Z" transform="translate(-124.93 -125)"/><path class="cls-2" d="M261,263.69l-.59,27.12-3,7.69v32.55H238.55L238,297.32l-2.47-7.69-.59-26L226,262.41l-8.87,6.51a48.48,48.48,0,0,0-2.47-5.33H186.47l-3,5.33L177,264.18l6.51-4.14s.18-27.12,0-39.65L177,217.92c2.17-2.16,4.34-5.52,6.51-7.69.6,2,2.47,6.51,2.47,6.51h26.63s2.47-4.93,3.55-6.51l10.65,10.65L235.1,225h26l8.36-3.63,11.24-11.24,3,6.51H312l3-6.51,5.91,6.51L315,220.81v39.06l5.91,3.55L315,268.74l-2.47-5.91H283.43L281,268.74l-11.24-6.51Z" transform="translate(-124.93 -125)"/><path class="cls-2" d="M281.75,210.43c10.65.2,21.3-.2,32.05,0-.79,1.77-1.57,4.14-2.46,5.92H284.21Z" transform="translate(-124.93 -125)"/><path class="cls-2" d="M320.81,218.12c.19,14.8,0,44.39,0,44.39l-5.33-3V221.67C317.06,220.49,319.23,219.31,320.81,218.12Z" transform="translate(-124.93 -125)"/><path class="cls-2" d="M177,218.81l5.92,2.47v38.46L177,263.29Z" transform="translate(-124.93 -125)"/><path class="cls-2" d="M259.85,224.63H235.59v-3l1.78-1.77h20.71l1.77,2.46Z" transform="translate(-124.93 -125)"/><path class="cls-2" d="M284.12,263.69h27.81l1.78,5.32H282.34Z" transform="translate(-124.93 -125)"/><path class="cls-2" d="M187.07,264.28h27.12L216,269H184.8Z" transform="translate(-124.93 -125)"/></g></svg>