<?xml version="1.0" encoding="UTF-8"?>
<svg id="b" data-name="Capa 2" xmlns="http://www.w3.org/2000/svg" viewBox="0 0 598.1 612.13">
  <g id="c" data-name="Capa 2">
    <path d="M480.18,560.19s117.92-75.4,117.92-207.94c0-94.48-126.48-149.71-163.81-149.71s-107.98,32.22-107.98,32.22c0,0,32.94-99.27,125.89-99.27,0,0-121.52-68.57-172.19,60.19,0,0,17.52-105.14,123.03-105.21,31.21-.26,51.43,12.68,80.78,30.92,6.26-7.04-11.43-45.71-11.43-45.71,0,0,37.5,9.29,42.67,51.81,41.14,25.52,36.19,71.62,36.19,71.62l27.43,17.9s-5.71-191.62-184.76-199.25c-140.57,1.71-159.79,136.42-159.79,170.71s21.71,113.14,21.71,113.14c0,0-67.46-34.95-74.89-125.24,0,0-10.65,2.92-20.94,24.63,0,37.14,10.67,86.1,10.67,86.1,0,0-26.3-42.92-25.73-88.06l-11.97-6.57,18.7-51.1s-14.35,3.58-35.84,13.39c10.25-51.14,120.48-128.6,120.48-128.6l1.78-26.16S69.55,46.16,69.55,176.48s98.46,183.97,121.89,183.97,56.19-1.33,56.19-1.33l3.24-23.43-13.14-13.33,36.89,3.29c14.48-.25,7.49-16.05,5.97-22.91-8.19-17.9-19.62-84.57-19.62-84.57,0,0,37.94,51.24,40.61,55.43s17.87,1.33,24.72.19,11.24-9.9,11.24-9.9c0,0,17.1,9.37,17.1,10.51s25-11.08,25-11.08l12.35-.45s-4.16,8.83-13.31,11.11-13.9,11.24-13.14,15.81,14.62,16.6,16.52,24.22,28.57,32.38,27.43,84.95c-2.29,26.67-33.57,75.05-40.05,83.43-2.38,2.67,4.48,14.57,4.48,14.57l-14.57-1.52s-13.1,21.33-26,28.25-38.86,13.71-38.86,13.71v17.14l6.59,9.27,24.08,18.67-22.67-10.35-10.16-1.59-1.59,12.13-51.11-23.17-50.29-12.57-9.52,8.76-8-9.52-41.52-6.86s24,69.71,148.19,72.76,179.38-108,179.38-137.33-21.33-135.22-30.86-143.04c0,0,54.86,27.23,56.38,80.18,0,0,18.29-30.48,18.29-54.48s-26.29-70.48-62.48-85.71c0,0,104,17.14,104,102.86-4.95,32.76-6.48,38.86-6.48,38.86,0,0,13.56-4.83,17.9-6.1.98,48.76-67.58,102.86-67.58,102.86l-6.87,50.02Z"/>
    <path d="M363.56,326.29s14.35,23.37,17.78,31.75,10.67,52.7,9.9,60.7-42.52,66.12-54.35,73.65c-7.2,4.58-29.21,4.06-29.21,4.06l10.41-44.44s25.35-25.27,24.59-30.98.02-15.81,0-15.81-31.76,34.41-31.76,34.41c0,0-22.15,9.33-22.54,9.33-1.14,0-23.24,40-32.76,41.9s-39.49,6.98-58.92,7.37c-65.52,0-129.27-1.78-168.89-98.29C-10.47,306.67,1.91,247.05,1.91,247.05l37.14,35.87s16.06,108.51,49.21,147.75l2.75-49.48s42.45,38.82,75.98,38.82c68.57,0,98.29-21.84,98.29-21.84,0,0-34.41,3.56-47.75,3.56s-58.41-32-58.41-32c0,0,36.7,7.87,53.08,7.87s55.62-25.9,61.71-27.43l29.71,3.56s10.41,28.32-29.21,59.17l25.4-4.57,34.29-57.4,22.1,3.81,7.37-28.44Z"/>
    <polygon points="292.93 292.83 297.5 304.83 307.02 310.73 316.93 325.4 327.59 328.83 333.82 324.25 346.83 327.49 339.21 313.4 331.21 309.59 334.64 304.06 349.5 304.06 338.07 292.83 324.36 297.59 323.21 285.59 308.36 295.3 301.07 293.4 307.59 283.49 294.64 286.92 292.93 292.83"/>
  </g>
</svg>