<svg xmlns="http://www.w3.org/2000/svg" viewBox="0 0 76.08 129.48"><defs><style>.cls-1,.cls-6{fill:#991c24;}.cls-1,.cls-2,.cls-3,.cls-4,.cls-5,.cls-6{stroke:#231f20;stroke-miterlimit:10;}.cls-2,.cls-5{fill:none;}.cls-2,.cls-3{stroke-width:0.5px;}.cls-3,.cls-4{fill:#fff;}.cls-6{stroke-width:0.75px;}</style></defs><g id="Layer_2" data-name="Layer 2"><g id="Layer_2-2" data-name="Layer 2"><polygon class="cls-1" points="38.04 128.08 25.54 122.08 25.54 103.08 13.04 90.58 13.04 65.58 0.54 40.58 13.04 3.08 13.04 15.58 13.04 28.08 13.04 40.58 25.54 53.08 50.54 53.08 63.04 40.58 63.04 28.08 63.04 15.58 63.04 3.08 75.54 40.58 63.04 65.58 63.04 90.58 50.54 103.08 50.54 122.08 38.04 128.08"/><polyline class="cls-2" points="15.54 90.58 23.04 93.08 25.54 100.58"/><polyline class="cls-2" points="60.54 90.58 53.04 93.08 50.54 100.58"/><polygon class="cls-3" points="15.54 68.08 33.04 73.08 23.04 75.58 15.54 68.08"/><polygon class="cls-3" points="60.54 68.08 43.04 73.08 53.04 75.58 60.54 68.08"/><polyline class="cls-4" points="25.54 122.08 28.66 128.08 31.79 115.58"/><polyline class="cls-4" points="50.54 122.08 47.41 128.08 44.29 115.58"/><polyline class="cls-5" points="25.54 122.08 31.79 115.58 44.29 115.58 50.54 122.08"/><polygon class="cls-6" points="37.04 114.08 34.91 110.58 32.79 114.08 37.04 114.08"/><polygon class="cls-6" points="43.29 114.08 41.16 110.58 39.04 114.08 43.29 114.08"/></g></g></svg>