<?xml version="1.0" encoding="utf-8"?>
<!-- Generator: Adobe Illustrator 24.0.0, SVG Export Plug-In . SVG Version: 6.00 Build 0)  -->
<svg version="1.1" xmlns="http://www.w3.org/2000/svg" xmlns:xlink="http://www.w3.org/1999/xlink" x="0px" y="0px"
	 viewBox="0 0 398.2 445.6" style="enable-background:new 0 0 398.2 445.6;" xml:space="preserve">
<style type="text/css">
	.st0{display:none;}
	.st1{fill:#EEE7CF;}
	.st2{display:none;fill:#FFFFFF;}
	.st3{fill:#82090A;}
	.st4{display:none;fill:#D3A625;}
</style>
<g id="Layer_3">
	<rect x="0" y="0" class="st0" width="398.2" height="445.6"/>
	
		<image style="display:none;overflow:visible;" width="2560" height="1090" xlink:href="redscroll.jpg"  transform="matrix(0.1555 0 0 0.1555 0 0)">
	</image>
	
		<image style="display:none;overflow:visible;" width="2560" height="686" xlink:href="339D1154.jpg"  transform="matrix(0.1555 0 0 0.1555 0 336.9375)">
	</image>
	
		<image style="display:none;overflow:visible;" width="2560" height="1090" xlink:href="redscroll.jpg"  transform="matrix(0.1555 0 0 0.1555 0 169.5147)">
	</image>
	<polygon id="blanc_background" class="st1" points="177.7,441.5 36.5,309 6.7,113.3 12.7,104.9 218.4,11 227.2,13.3 376.1,123.7 
		391.5,321.2 385.6,333.9 186,441.5 	"/>
</g>
<g id="Layer_1">
	<title>logo</title>
	<rect x="0" y="0" class="st2" width="397.4" height="445.6"/>
	<path class="st2" d="M373.6,127.5c0.5,4.5,1.1,8.8,1.5,13c0.7,6.3,1.4,12.7,2,19c0.5,5.3,0.9,10.5,1.3,15.8
		c0.7,8.7,1.4,17.4,2.1,26.1c0.5,6.8,1,13.7,1.6,20.5l1.7,21.6c0.5,6.8,1,13.6,1.6,20.4c0.7,8.9,1.4,17.8,2.1,26.7
		c0.6,8.5,1.3,17,1.9,25.5c0.3,4.9-1,9.1-5,12.3c-0.9,0.7-1.8,1.3-2.8,1.8l-116.7,63.4L188.7,435c-1.3,0.7-2.6,1.2-4.1,1.5
		c-2,0.6-4-0.5-4.6-2.5c0-0.1-0.1-0.3-0.1-0.4c-0.4-1.4-0.6-2.8-0.7-4.3c-1.2-10.6-2.3-21.1-3.4-31.7c-1.4-12.7-2.8-25.5-4.2-38.2
		c-1.1-10.6-2.3-21.1-3.4-31.7c-1-9.4-2.1-18.8-3.1-28.3s-2-18.9-3-28.3s-2.1-18.6-3.1-27.9c-0.1-1.1-0.2-2.3-0.2-3.4
		c-0.2-4.1,2-8,5.8-9.8c2.1-1.1,4.2-2.1,6.3-3.2l145.7-71.5l54.3-26.6C371.5,128.3,372.5,128,373.6,127.5z M166.6,303l-0.4,0.1
		c0.1,1.4,0.3,2.8,0.4,4.1c0.8,7.2,1.5,14.4,2.3,21.6c0.1,0.7,0.3,1.4,0.6,2c1.8,2.9,3.1,6.1,3.7,9.5c1.2,5.5,2.4,11,3.6,16.5
		c0.2,0.7,0.4,1.3,0.7,2c0.4-0.7,0.7-1.5,0.8-2.3c0.4-3.1,0.3-6.3-0.2-9.4c-0.5-3.5-1-7-1.4-10.5c-0.2-1.2-0.1-2.4-0.2-3.7h0.4
		c7.1,15.9,9.5,33,11.9,50.2c-2.7-0.7-5.3-1.9-7.7-3.3c-2.4-1.4-4.6-3-7.1-4.6c0.1,0.5,0.2,1,0.2,1.6c-0.2,1.9,0.8,3,2.3,4.1
		c4.8,3.5,9.3,7.5,13.2,12c3.8,4.5,7.6,9,11.4,13.5c0.3,0.4,0.6,0.8,1.1,1.4c-1.8,0.3-3.7,0.3-5.5-0.1c-2.7-0.6-5.4-1.4-8.1-2.1
		c-0.6-0.1-1.1-0.2-1.9-0.4c0.4,1.1,0.6,1.9,0.9,2.7c1,3.4,3.8,6,7.2,6.9c1.3,0.3,2.5,0.8,3.7,1.4c3,1.7,5.9,3.6,8.9,5.4
		c0.6,0.4,1.2,0.8,1.8,1.2c5-2.7,9.9-5.3,14.7-8c0.7-0.4,1.2-1,1.6-1.7c2.7-4,5.2-8.1,7.9-12c7.9-11.2,11.3-23.8,11.2-37.4
		c-0.1-8.9-1.1-17.7-3.2-26.4c-2.5-11.3-7.2-22-14-31.4c-8.3-11-18.4-20.4-30-27.9c-3-1.9-5.9-3.9-8.7-6
		c-9.3-6.9-18.2-14.3-26.6-22.2c-0.5-0.4-1-0.8-1.8-1.5c0.6,5.3,1.2,10.3,1.7,15.2c0.4-0.6,0.6-1.3,0.7-2c0.2-0.6,0.4-1.3,0.6-1.9
		c0.8-1.7,1.9-2,3.4-0.9c0.5,0.4,1,0.7,1.4,1.2c2.1,1.9,4.1,3.8,6.2,5.7c8.3,7.3,16.9,14.2,26.7,19.6c0.6,0.3,1.1,0.7,1.6,1.2
		c1.5,1.4,2.2,3.1,1.4,5.1c-1.2,2.8-2.5,5.5-3.9,8.2c-0.7,1.3-1.7,1.4-3,0.7c-0.4-0.2-0.7-0.4-1-0.7c-2.2-2.3-4.9-3.5-7.6-4.9
		c-5.5-2.8-11.1-5.1-17.3-6c-2.1-0.4-4.3-0.6-6.4-0.4l0.5,4.9l1.2,0.2c3,0.5,6.1,0.7,9,1.4c9.1,2.3,17.4,6,24.2,12.7
		c1.3,1.3,2.5,1.5,3.8,0.8s1.6-1.6,1.1-3.5c-0.5-2.5-0.4-5.1,0.2-7.6c0.2-1,0.7-2,1.3-2.8c1.2-1.7,3.6-2.1,5.3-0.9l0.3,0.3
		c0.5,0.4,1,0.9,1.5,1.3c1.3,1.3,2.6,2.6,3.8,3.9c3.1,3,5.8,6.4,8.2,10c8.1,12.4,11.4,26.4,13,40.9c0.4,2.3-1,4.6-3.2,5.3
		c-3.2,1.3-6.4,2.5-9.7,3.6c-3.1,1.2-6.6,0.3-8.8-2.3c-1.4-1.5-2.8-3.1-4.1-4.6c-2.4-2.9-4.8-5.8-7.3-8.6c-2.3-2.6-5.2-4.7-8.4-6
		c-4.1-1.9-7.8-4.5-11-7.7c-3.4-3.5-6.4-7.3-9-11.4c-3-4.6-5.9-9.2-8.8-13.9C167.4,304,167,303.6,166.6,303L166.6,303z M304.1,162.2
		c1.4,2.6,1.8,2.7,3.8,1.1c1.5-1.2,2.4-1,3.9,0.6c3.2,3.5,6.5,6.9,9.7,10.4c5,5,9.6,10.3,14,15.8c0.4,0.5,0.8,1.1,1.2,1.7
		c-1.1,0.4-2.3,0.1-3.1-0.8c-0.9-0.7-1.6-1.5-2.5-2.2c-0.9-0.9-2.4-0.9-3.3,0.1c0,0,0,0,0,0c-0.1,0.1-0.1,0.1-0.2,0.2
		c-0.9,0.9-1,1.8,0,3.1c0.3,0.5,0.7,1,1.1,1.5c0.6,0.7,0.8,1.6,0.6,2.5c-0.5-0.1-1-0.1-1.4-0.3c-5.8-1.6-11.1-4.7-15.4-9
		c-3.6-3.6-6.9-7.5-9.9-11.6c-2.3-3-5.1-5.4-8.5-7.1c-0.4-0.3-1-0.4-1.5-0.3c-1.6,0.7-3.1,1.5-4.8,2.3c1.4,1.1,2.7,2.1,3.9,3.2
		c3.1,3,5.7,6.7,7.4,10.7c1.8,4,4.5,7.5,7.7,10.5c1.9,1.7,3.9,3.3,5.9,4.8c3.7,2.6,7.5,5.2,11.4,7.5c2,1.1,3.8,2.5,5.5,4.1
		c0.6,0.6,1,1.2,1.4,1.9c0.4,1,0.1,2.1-0.6,2.8c-0.6,0.7-1.6,1-2.5,0.6c-0.8-0.3-1.5-0.7-2.3-1c-0.9-0.4-1.9-0.8-2.9-1.1
		c-5.1-1.4-9.8-4.1-13.5-7.9c-3-3.1-5.5-6.5-7.7-10.1c-1.5-2.4-3-4.7-4.6-7c-4.2-5.8-9.7-10.6-16.1-14c-1-0.6-2.2-0.7-3.2-0.1
		c-8.8,4.4-17.6,8.7-26.5,13c-1.1,0.5-2.1,1.1-3.2,1.6c0.8,1.7,1,3.7,0.6,5.6c-0.1,0.5-0.1,1.1-0.1,1.6c0.1,1.1,0.8,2,1.9,2.2
		c1,0.3,2,0,2.6-0.8c0.5-0.6,0.9-1.3,1.2-2c1.4-3.1,4.3-5.1,7.7-5.4c6.8-0.8,13.7,0.4,19.8,3.5c5.8,3,11,6.9,15.6,11.5
		c2.6,2.4,4.8,5.2,6.6,8.2c1.5,2.4,2.4,5.1,2.8,7.8c0.6,5-0.9,9.5-3.6,13.6c-0.4,0.5-0.7,1-1,1.5c-0.6,0.8-0.5,2,0.2,2.7
		c0.7,0.9,2.1,1.1,3,0.4c0.8-0.6,1.5-1.2,2.2-1.9c2.4-2.5,5.1-4.7,8-6.6c4-2.4,8.3-4.3,12.8-5.6c3.9-1.2,7.5-3.2,10.6-5.8
		c3.7-3.2,7-7,9.7-11.1c5.8-8.3,7.7-18.7,5-28.5c-0.1-0.4-0.3-0.8-0.5-1.4c-1.2,1.6-2.4,2.9-2.9,4.6c-0.2,0.8-0.6,1.6-1.1,2.3
		c-1,1.7-2.2,1.9-3.8,0.7c-0.7-0.5-1.3-1.1-1.8-1.8c-0.8-1-1.6-2-2.4-3c-5-6.5-10-13-15.9-18.8c-1.8-1.7-3.1-3.8-3.9-6.1
		c-0.3-1-0.5-2.1-0.8-3.3L304.1,162.2z M229.4,199.3l-0.2-0.4l-6.4,3.1l1.9,1.3L229.4,199.3z"/>
	<path class="st2" d="M151.9,228.3l-140.1-123c1.9-1.7,4-3.2,6.3-4.4C82.9,71,147.6,41.1,212.3,11.1c2.2-1.1,4.5-1.8,6.9-2.1
		c4.1-0.4,8.2,0.8,11.4,3.3c6.6,4.9,13.1,9.8,19.7,14.7l118,87.5c1.4,1,2.6,2.2,4.1,3.4l-8.6,4.2L216,194.7l-54.1,26.6
		c-2.3,1.1-4.4,2.5-6.4,4.2C154.4,226.3,153.2,227.2,151.9,228.3z M121.8,200.8c-0.1-3.8,0.1-7.6,0.8-11.3c0.6-4,0.8-8,1.1-12
		c0.2-3.7,1-7.4,2.4-10.8c2.4-5.4,5.4-10.5,8.9-15.2c3.9-5.3,9.2-9.3,15.3-11.6c8.9-3.4,18.6-4.1,27.9-2.2c8.4,1.7,16.6,4.4,24.3,8
		c1.5,0.7,2.9,1.5,4.2,2.5c4.2,3.2,5.6,7.4,3.8,12.4c-0.8,1.9-1.7,3.7-2.7,5.5c-0.5,0.9-1,1.9-1.5,2.9c-0.7,1.4-0.2,3.2,1.2,4
		c0.9,0.6,1.8,1.1,2.7,1.6c1.8,1.1,3.6,2,5.3,3.2c3.8,2.6,6.5,6.5,7.7,10.9c0.1,0.4,0.3,0.8,0.4,1.3l6.7-3.3
		c-0.7-0.6-1.2-0.9-1.6-1.3c-1.9-1.7-3.9-3.3-5.7-5.1c-2.6-2.6-5-5.3-7.4-8c-2.7-3.1-3-6.6-1.9-10.4c0.9-2.7,2.2-5.3,3.9-7.6
		c1.9-2.7,1.6-4.1-0.8-6.3c-0.6-0.6-1.2-1.2-1.7-1.9c-0.6-0.8-1.2-1.7-1.9-2.4c-2.2-2.1-4-4.6-5.4-7.3c-1.9-3.6-1.8-7.9,0.4-11.3
		c1.2-1.9,2.6-3.7,4.2-5.3c2.7-2.3,3.9-6,3-9.4c-0.5-2.7-1.2-5.3-1.8-8c-0.1-0.6-0.2-1.1-0.3-2c2.3,0.8,4.3,1.5,6.3,2.3
		c9.6,4,19,8.7,28,14c4.5,2.6,8.7,5.4,13,8.1c0.3,0.2,0.5,0.3,0.7,0.6c0.2,0.2,0.4,0.4,0.6,0.6c-9.8-3.7-19.6-7.2-30.2-7
		c0.1,0.1,0.2,0.2,0.3,0.2c1.3,0.3,2.6,0.6,3.9,0.8c6.7,1.6,13.1,4.1,19.1,7.4c6.7,3.5,13.4,7.1,20.1,10.6
		c7.9,3.9,15.1,9.1,21.5,15.2c0.2,0.2,0.5,0.4,0.7,0.6l24.2-11.9c-0.3-0.3-0.4-0.4-0.5-0.5c-2.3-1.1-3.8-3.4-3.9-6
		c-0.1-1.3-0.2-2.6-0.2-3.8c0-1.4-0.7-2.7-1.9-3.3c-0.5-0.3-1.1-0.6-1.6-0.9c-6.3-3.3-10.8-9.1-12.6-16c-0.9-3.3-1.7-6.6-2.6-9.9
		c-2.1-7.9-4.4-15.7-8-23c-0.3-0.5-0.6-1-1-1.8c-0.2,0.5-0.3,1.1-0.5,1.6c-0.8,5.2-1.6,10.3-2.2,15.5c-0.3,2.3-0.2,4.6-0.3,6.9
		c0.1,1.8-0.9,3.4-2.5,4.1c-1.6,0.8-3.6,0.5-4.9-0.8c-0.9-0.8-1.8-1.7-2.6-2.6L225.7,38c-0.6-0.8-1.3-1.6-2-2.4
		c-1.4-1.4-3.3-2.3-5.3-2.5c0.3,0.6,0.6,1.2,1,1.8c3.6,5.5,7.3,10.9,10.8,16.4c8.5,13.2,16,27.1,22.3,41.5c0.3,0.6,0.5,1.1,0.7,1.7
		c-0.4,0-0.9-0.1-1.2-0.4c-3.4-2.3-6.7-4.9-9.6-7.8c-4.1-4.2-8-8.7-11.5-13.4c-3.4-4.4-7-8.7-10.5-13.1c-0.4-0.5-1-1-1.7-1.8
		c0.1,1.9,0.6,3.7,1.6,5.3c0.9,1.8,1.6,3.7,1.9,5.7c0.3,2.5-0.5,4.9-2.2,6.7c-1,1.3-2.8,1.7-4.3,1c-2.8-1.3-5.6-2.7-8.2-4.2
		c-3.3-2.2-6-5.2-7.8-8.7c-2.8-5.1-5.6-10.3-8.6-15.5c-2.5-4.2-5.2-8.2-7.9-12.2c-1.7-2.5-3.9-4.7-6.4-6.5c-0.8-0.6-1.5-0.9-2.3,0.1
		c0.3,0.4,0.6,0.9,0.9,1.3c5,6.9,8.7,14.7,10.8,22.9c0.8,2.4,1,5,0.6,7.6c-0.3,2.2-1.9,4-4,4.4c-1.5,0.4-3,0.5-4.5,0.4
		c-4.8-0.3-9.5-1.3-14-3.2c-7.4-2.7-14.2-7-19.8-12.6c-0.5-0.7-1.3-1.2-2.1-1.4c-2.3-0.4-4.7-0.5-6.9-0.7c-0.2,0.4-0.4,0.8-0.5,1.2
		c-0.6,2.7-1.2,5.5-1.8,8.2c-0.2,0.9-0.1,1.9,0.1,2.8c1,3.2,2.8,5.9,4.3,8.8c0.3,0.7,0.9,1.3,1.6,1.6c0.7,0.4,1.3,0.9,1.7,1.6
		c0.9,1.2,1.6,2.4,2.4,3.6c0.5,0.7,0.9,1.5,1.2,2.3c0.7,1.5,0.3,3.4-1,4.4c-0.7,0.7-1.7,1.2-2.7,1.5c-2,0.3-4,0.5-6,0.4
		c-3-0.2-6,0.7-8.4,2.4c-1,0.7-1.9,1.5-3,2.1c-1.7,1.2-3.5,2.2-5.3,3.2c-7.2,3.4-14.7,3.6-22.4,1.7c-2.6-0.6-5.3-1.1-8-1.4
		c-1.6-0.3-3.2,0.2-4.5,1.2c-2,1.7-3.7,3.7-5.5,5.6c0,0.1,0,0.2,0,0.2c1.2-0.2,2.5-0.3,3.8-0.2c2.6,0.4,5.1,1.2,7.5,2.2
		c2.9,1.3,5.6,3.1,8.4,4.8c-3.8,3.7-8,7-12.4,10c-6.5,4.4-14,7-21.8,7.5c-2.1,0.1-4.2,0.2-6.3,0.5c-2.6,0.4-5.2,1-7.8,1.5
		c-0.2,0.1-0.4,0.2-0.6,0.3l-5.7,4.9c1.1,0.9,2.1,1.6,3.1,2.4s1.8,1.6,2.7,2.4c0.5,0.4,0.9,1,1.3,1.5c6.6,5.8,13.1,11.6,19.7,17.3
		c0.3,0.3,0.6,0.5,1.3,1c-1.2-2.7-0.6-4.9,0.2-7.1c0.8-2.5,1.6-5.1,2.7-7.6c2.7-6.7,6.8-12.8,12.2-17.8c2.6-2.4,4.2-2,5.5,1.2
		c1.6,4,2.9,8.1,4.1,12.2c1.7,5.7,1.1,11.9-1.7,17.2c-2.7,5.1-3.8,10.7-5,16.3c-0.1,0.4-0.1,0.8,0.1,1.2c0.8,1,1.8,1.8,3,2.3
		c1.1-4.8,3-9.3,5.6-13.5c0.4,1.6,0.8,2.7,1.1,3.9c0.5,2.2,0.9,4.4,1.5,6.6c0.8,3.1,2.9,5.6,5.8,6.8c0.3,0.1,0.6,0.3,1.1,0.6
		c-2.4,0.8-4.9,1.2-6.3,3.7L121.8,200.8z M236.1,126.6c-0.6,0.8-0.9,1.3-1.3,1.9c-3.2,5.3-5,11.4-5.2,17.6
		c-0.3,8.2,1.5,15.9,6.3,22.7c1.4,2,2.7,4.1,4.2,6.2c0.7,1.1,1.6,2.1,2.7,3c1.3,1.2,3.2,1.3,4.7,0.4c4-2.1,8.2-4,12.3-6l5.8-2.9
		c0-0.2,0-0.4,0-0.7c-0.1-0.3-0.2-0.6-0.3-0.9c-1-2.7-2.9-5-5.5-6.4c-2.1-1.2-4.5-2.2-6.7-3.3s-4.3-2-6.3-3.2
		c-1.3-0.8-2.4-1.6-4-1.3c-0.1,0-0.2-0.1-0.4-0.3c0.9-4.1-0.7-7.6-2.7-11.1c-0.9-1.5-1.7-3.1-2.4-4.7c-1.1-2.1-1.4-4.6-0.9-6.9
		C236.7,129.5,236.6,128,236.1,126.6L236.1,126.6z M267.4,168.6l2.5-1.3l-1.7-1.5C267.4,166.5,267.1,167.6,267.4,168.6z"/>
	<path class="st2" d="M170,428.6c-0.6-0.5-1.1-1-1.6-1.5L105,368.7c-19.9-18.4-39.8-36.8-59.8-55.1c-4.7-4.1-7.7-9.8-8.4-16
		c-1.4-10.8-3.2-21.5-4.9-32.2L27.5,236c-1.5-9.9-3-19.8-4.6-29.7l-4.2-27l-4.2-27c-1.6-10.4-3.3-20.9-4.8-31.3
		c-0.5-3.6-0.6-4.4-1.3-9.1c0.3,0.3,90.9,82,131.3,117.4c5.6,4.9,9.5,10.7,10.8,18.1c0.6,3.5,0.9,7,1.3,10.5
		c0.8,7.7,1.6,15.5,2.4,23.1c0.8,7.4,1.6,14.9,2.4,22.3c0.8,7.2,1.6,14.5,2.4,21.7c0.7,5.9,1.3,11.9,1.9,17.8
		c0.8,7.4,1.6,14.9,2.4,22.3c0.8,7,1.5,14,2.3,21c0.8,7.3,1.6,14.6,2.4,21.9C168.8,414.6,170.1,428.3,170,428.6z M101.9,220.5
		c1.1,0.1,1.7,0.1,2.3,0.3c3.5,0.6,7,1.8,10.2,3.3c12.7,5.9,24.2,14.1,34,24.1l1.3,1.3c0.2-0.5,0.2-1.1,0.1-1.6
		c-1.3-6.9-4.9-13.1-10.3-17.6c-7.6-6.6-15.1-13.4-22.8-19.9c-6.8-5.8-13.2-12-20.3-17.4c-0.3-0.3-0.6-0.6-0.9-0.9
		c-2.4-2.2-4.7-4.4-7-6.6c-0.4-0.3-0.8-0.6-1.3-0.9c-0.1,1.8-0.2,3.3-0.2,4.8c-0.1,2.6,0,5.2-0.3,7.8c-0.2,1.9-1.2,2.5-3.1,2
		s-3.6-1.2-5.3-1.8c-3.5-1.1-6.4-3.5-8.1-6.7c-4.5-7.7-6.5-15.9-4-24.8c-1.8-2-14-12.6-15.2-13.1c-1.4,3.3-3.5,6.3-6.1,8.7
		c-2.7,2.6-5.4,5.2-8.3,7.7c-5.3,4.4-10.9,8.6-16.7,12.4l0.6,3.3c2.2-0.8,4.2-1.5,6.2-2.1c5-1.5,10-2.6,15.2-2.1
		c5,0.3,9.4,3.5,11.2,8.1c0.4,1,0.8,2.1,1,3.1c1.3,5.9,0.9,11.7-0.2,17.5c-1.4,6.2-3.2,12.4-5.4,18.3c-0.8,2.3-1.8,4.5-2.6,6.8
		c-0.9,2.1-0.8,4.5,0.5,6.5c1-1,1.9-1.9,2.7-2.8c1.8-2,3.6-4,5.4-5.9c2.9-2.9,6.4-4.9,10.4-5.8c1.9-0.6,3.9,0.4,4.5,2.2v0.1
		c0.5,1.1,0.8,2.3,1,3.5c0.9,7.1,1,14.3,0.2,21.5c-0.8,7-2.3,13.9-4.7,20.5c-1.1,3.3-1.4,6.8-0.9,10.3c0.1,0.5,0.2,1,0.4,1.5
		c0.4-0.4,0.6-0.7,0.9-0.9c1.5-1.9,2.9-3.7,4.4-5.6c2.5-2.9,4.9-5.9,7.5-8.7c1.2-1.2,2.5-2.1,4-2.8c1.9-1.1,4.4-0.4,5.4,1.5
		c0,0,0,0,0,0.1v0.1c0.8,1.2,1.3,2.5,1.6,3.8c0.7,3.5,1.3,7,1.6,10.6c0.8,7.3-0.6,14.7-4.1,21.2c-0.9,1.7-1.5,3.4-1.9,5.3
		c-0.4,1.5-0.4,3.2,0.2,4.6c1.3,0.1,2.6-0.5,3.4-1.6c0.5-0.7,0.9-1.4,1.4-2.2c1-1.8,2.4-3.4,4.1-4.6c2.1-1.7,5-2,7.4-0.8
		c0.6,0.2,1.1,0.5,1.6,0.9c5.4,3.9,7.7,9.2,7.3,15.8c-0.2,2.6-1.3,5-3.1,6.8c-1.9,2.1-4.7,3.1-7.4,2.7c-1.2-0.1-2.4-0.3-3.6-0.3
		c-1.2,0-2.5,0.1-3.7,0.2l-0.1,0.4l9.9,8.3c0.3-3.7,1.4-5,4.8-5.9c0.9-0.2,1.9-0.5,2.8-0.8c0.5-0.3,1.2-0.2,1.7,0.1
		c3.9,2.4,8.1,4.2,12.5,5.5c3.4,1.2,6.9,2.4,10.3,3.7c1.3,0.5,2.5,1.1,3.8,1.7c0.9-2,0.7-2.8-1-3.6c-0.5-0.3-1.1-0.5-1.6-0.8
		c-2.9-1.8-3.8-4-2.9-7.3c0.4-1.2,0.8-2.4,1.3-3.6c1-2.1,1.2-4.5,0.6-6.8c-0.5-1.7-1.2-3.4-2-5c-1.1-2.1-2.4-4.1-3.6-6.1
		c-0.6-1.1-1.2-2.2-2-3.6c0.7,0.1,1,0.2,1.3,0.3c3.4,1,6.6,2.6,9.4,4.6c3.5,2.3,6.9,4.6,10.5,6.6c2.8,1.6,5.8,2.7,8.7,4.1
		c0.5,0.1,1,0.2,1.5,0.3c-0.2-1.8-0.4-3.4-0.5-4.8c-4.3-2-8.5-3.9-12.6-5.9c-6.6-3.1-12.8-6.9-18.7-11.2c-7.8-6-13.7-13.4-16.7-22.9
		c-0.5-1.5-1.2-3-1.8-4.6c-0.3-0.7-0.5-1.4-0.7-2.1c-0.4-1.5,0.5-3,2-3.4c0.4-0.1,0.8-0.1,1.2,0c0.5,0.1,1,0.2,1.4,0.4
		c1.6,0.5,3.2,0.7,4.8,0.7c2.7,0.1,5.3,0.4,7.9,0.9c8,1.6,14.4,6,19.8,12c3.7,4.3,7,8.9,9.7,13.9c0.3,0.5,0.6,1.1,1,1.6
		c-0.1-4.2-0.6-8.2-1.1-12.3c-0.1-0.5-0.4-1-0.8-1.3c-2-1.6-3.7-3.5-5.2-5.6l-14.3-20.5c-0.2-0.3-0.4-0.6-0.6-1.1
		c3.2,0.2,6.3,0.9,9.4,1.9c3,1,5.9,2.1,9.1,3.3l-0.5-5C128.4,253.9,112.9,240.6,101.9,220.5z M148.4,347.8c-1.2,2.2-1,3.9,0.5,5.6
		c0.7,0.8,1.4,1.6,2,2.5c2.8,5,6.5,9.4,10.8,13.2c0.3,0.3,0.7,0.6,1.4,1.1c-0.3-2.5-0.5-4.7-0.8-6.9c-0.1-0.4-0.3-0.8-0.6-1.1
		c-4-4.4-7.9-8.8-11.9-13.2C149.3,348.5,148.9,348.1,148.4,347.8z"/>
	<path class="st3" d="M166.6,301.6c0.4,0.5,0.8,1,1.1,1.6c2.9,4.5,5.7,9.1,8.6,13.6c2.5,4,5.5,7.8,8.8,11.2
		c3.1,3.1,6.8,5.7,10.8,7.5c3.1,1.4,5.9,3.4,8.2,6c2.5,2.8,4.8,5.6,7.2,8.4c1.3,1.5,2.6,3.1,4,4.5c2.1,2.5,5.6,3.4,8.6,2.3
		c3.2-1.1,6.4-2.2,9.5-3.5c2.2-0.7,3.6-3,3.2-5.2c-1.5-14.3-4.8-28-12.8-40.2c-2.3-3.5-5-6.8-8-9.8c-1.3-1.3-2.5-2.6-3.8-3.8
		c-0.5-0.5-0.9-0.9-1.5-1.3c-1.6-1.4-3.9-1.2-5.3,0.4c0,0,0,0,0,0c-0.1,0.1-0.2,0.2-0.2,0.3c-0.6,0.8-1,1.7-1.3,2.7
		c-0.6,2.4-0.7,5-0.2,7.5c0.4,1.8,0,2.8-1.1,3.4s-2.4,0.4-3.7-0.8c-6.7-6.6-14.9-10.3-23.8-12.5c-2.9-0.7-5.9-0.9-8.8-1.4l-1.2-0.2
		l-0.5-4.8c2.1-0.1,4.2,0,6.3,0.4c6,0.9,11.6,3.2,17,5.9c2.6,1.3,5.4,2.6,7.5,4.8c0.3,0.3,0.6,0.5,1,0.7c1.2,0.7,2.3,0.6,2.9-0.6
		c1.4-2.6,2.7-5.3,3.9-8c0.8-1.9,0.1-3.6-1.4-5c-0.5-0.4-1-0.8-1.6-1.1c-9.5-5.3-18-12.1-26.2-19.3c-2.1-1.8-4-3.7-6.1-5.6
		c-0.4-0.4-0.9-0.8-1.4-1.1c-1.5-1-2.5-0.7-3.3,0.9c-0.3,0.6-0.5,1.2-0.6,1.9c-0.1,0.7-0.4,1.3-0.7,1.9c-0.5-4.9-1.1-9.7-1.7-14.9
		c0.8,0.7,1.3,1.1,1.7,1.5c8.3,7.7,17,15,26.2,21.7c2.8,2,5.7,4,8.6,5.9c11.4,7.3,21.4,16.5,29.5,27.4c6.7,9.2,11.3,19.7,13.8,30.8
		c2,8.5,3,17.2,3,25.9c0,13.3-3.3,25.7-11,36.8c-2.7,3.9-5.2,7.9-7.8,11.8c-0.4,0.7-0.9,1.2-1.6,1.6c-4.7,2.6-9.5,5.3-14.4,7.9
		c-0.6-0.4-1.1-0.8-1.7-1.2c-2.9-1.7-5.8-3.6-8.7-5.3c-1.2-0.6-2.4-1.1-3.7-1.4c-3.4-0.8-6.1-3.4-7.1-6.7c-0.3-0.8-0.5-1.6-0.9-2.6
		c0.8,0.1,1.3,0.2,1.9,0.4c2.6,0.7,5.2,1.4,7.9,2.1c1.8,0.4,3.7,0.4,5.5,0.1c-0.5-0.6-0.7-1-1.1-1.4c-3.7-4.4-7.5-8.8-11.2-13.2
		c-3.8-4.4-8.2-8.4-12.9-11.8c-1.5-1.1-2.4-2.2-2.3-4.1c0-0.5-0.1-1-0.2-1.6c2.4,1.6,4.6,3.1,7,4.5c2.4,1.4,4.9,2.5,7.5,3.2
		c-2.3-16.9-4.7-33.7-11.7-49.3l-0.4,0c0,1.2,0.1,2.4,0.2,3.6c0.4,3.4,1,6.9,1.4,10.3c0.5,3.1,0.6,6.2,0.2,9.3
		c-0.1,0.8-0.4,1.6-0.8,2.2c-0.2-0.6-0.5-1.3-0.7-2c-1.2-5.4-2.4-10.8-3.6-16.2c-0.6-3.3-1.8-6.5-3.6-9.3c-0.4-0.6-0.6-1.3-0.6-2
		c-0.8-7.1-1.5-14.1-2.3-21.2c-0.1-1.4-0.3-2.7-0.4-4.1L166.6,301.6z M197.7,341c-0.4,2-0.1,4.1,1,5.9c8.4,16.1,12,34.4,10.2,52.5
		c-0.2,2.5-0.5,5-2,7.2c-0.1,0.3-0.3,0.5-0.3,0.8c-0.6,1.7-0.1,2.9,1.6,3.3c2,0.5,4,0.8,6,0.9c2.7,0.1,4.5-1.3,5.5-3.8
		c0.2-0.5,0.3-1,0.5-1.5c0.5-1.9,1.6-3.5,3.2-4.6c6.5-4.4,10.2-10.7,12.2-18.2c1.2-5,2-10.1,2.5-15.2c0.2-1.5,0.4-3.1,0.4-4.6
		c0-3.1-1.7-4.8-4.8-4.8c-1,0-2,0.1-3,0.3c-6.4,1.2-12.3,4.3-16.9,9c-0.3,0.3-0.6,0.5-1,0.7c0-0.2,0-0.5,0-0.7
		c1.1-5.2-0.1-10.7-3.4-14.9c-0.9-1.2-1.9-2.4-3-3.6c-1.9-2-3.8-3.8-5.7-5.7C199.7,343.1,198.8,342.1,197.7,341L197.7,341z
		 M203.6,398.3v-1c-0.7-8.4-2-16.7-3.9-24.9c-2.7-11-7.2-21.5-13.4-31.1c-0.3-0.5-0.7-0.9-1-1.4c-0.2,0.2-0.2,0.4-0.2,0.7
		c1.2,5.9,2.5,11.8,3.7,17.7c1.3,6,2.2,12.1,2.8,18.2c0.1,1.9,0.4,3.8,0.9,5.6c1.6,6.7,5.7,11.7,10.7,16.1
		C203.2,398.3,203.3,398.3,203.6,398.3L203.6,398.3z"/>
	<path class="st3" d="M301.7,163.3l16.2-8c0.3,1.2,0.4,2.2,0.8,3.2c0.8,2.3,2.1,4.3,3.9,5.9c5.8,5.7,10.7,12.1,15.6,18.4
		c0.8,1,1.5,2,2.4,2.9c0.5,0.6,1.1,1.2,1.8,1.7c1.6,1.2,2.7,1,3.7-0.7c0.5-0.7,0.8-1.5,1.1-2.2c0.5-1.7,1.6-3,2.8-4.6
		c0.2,0.6,0.4,1,0.5,1.4c2.6,9.6,0.8,19.9-4.9,28c-2.7,4-5.9,7.7-9.5,10.9c-3,2.6-6.6,4.5-10.4,5.7c-4.4,1.3-8.6,3.1-12.6,5.5
		c-2.9,1.8-5.5,4-7.9,6.4c-0.6,0.7-1.4,1.3-2.1,1.9c-0.9,0.7-2.2,0.5-2.9-0.4c-0.7-0.7-0.8-1.8-0.2-2.6c0.3-0.5,0.6-1,1-1.5
		c2.6-4.1,4.1-8.4,3.5-13.4c-0.4-2.7-1.3-5.3-2.7-7.7c-1.8-3-4-5.7-6.5-8c-4.5-4.5-9.7-8.3-15.4-11.3c-6-3-12.8-4.2-19.5-3.4
		c-3.3,0.2-6.2,2.2-7.6,5.3c-0.3,0.7-0.7,1.4-1.2,2c-0.6,0.8-1.6,1.1-2.6,0.8c-1-0.2-1.8-1.1-1.9-2.2c0-0.5,0-1.1,0.1-1.6
		c0.3-2.7,0.3-3.1-0.6-5.5c1-0.5,2.1-1.1,3.2-1.6c8.7-4.3,17.3-8.5,26-12.8c1-0.6,2.2-0.5,3.1,0.1c6.3,3.3,11.7,8,15.8,13.8
		c1.6,2.2,3.1,4.5,4.6,6.9c2.1,3.6,4.7,6.9,7.6,10c3.7,3.7,8.2,6.4,13.3,7.8c1,0.3,1.9,0.7,2.8,1.1c0.8,0.3,1.5,0.7,2.3,1
		c0.8,0.4,1.9,0.2,2.4-0.6c0.8-0.7,1-1.8,0.6-2.8c-0.3-0.7-0.8-1.3-1.3-1.9c-1.6-1.6-3.4-2.9-5.4-4c-3.8-2.3-7.5-4.8-11.2-7.4
		c-2-1.5-4-3-5.8-4.7c-3.2-2.9-5.8-6.4-7.6-10.3c-1.7-3.9-4.2-7.5-7.3-10.5c-1.1-1.1-2.4-2-3.8-3.2c1.7-0.8,3.2-1.6,4.7-2.3
		c0.5-0.1,1,0,1.5,0.3c3.2,1.7,6.1,4,8.3,6.9c2.9,4.1,6.2,7.9,9.7,11.4c4.2,4.2,9.4,7.3,15.1,8.8c0.4,0.1,0.9,0.2,1.4,0.2
		c0.2-0.9-0.1-1.8-0.6-2.4c-0.3-0.5-0.7-1-1-1.5c-0.9-1.3-0.9-2.1,0.1-3c0.8-1,2.2-1.2,3.2-0.4c0,0,0,0,0,0l0.2,0.2
		c0.9,0.7,1.6,1.5,2.4,2.1c0.8,0.8,2,1.1,3.1,0.7c-0.5-0.6-0.8-1.2-1.2-1.7c-4.3-5.4-8.9-10.6-13.8-15.5c-3.2-3.4-6.4-6.8-9.5-10.2
		c-1.5-1.6-2.3-1.7-3.8-0.6C303.5,165.9,303.1,165.8,301.7,163.3z"/>
	<path class="st3" d="M228.3,199.7l-4.6,4l-1.9-1.3l6.3-3.1L228.3,199.7z"/>
	<path class="st3" d="M122.6,201.2l-20.8-18.3c1.4-2.5,3.8-2.8,6.2-3.7c-0.5-0.2-0.8-0.4-1.1-0.6c-2.8-1.2-5-3.7-5.7-6.7
		c-0.6-2.1-1-4.3-1.4-6.5c-0.3-1.1-0.6-2.3-1.1-3.8c-2.6,4.1-4.5,8.6-5.6,13.3c-1.3-0.5-2-1.5-2.9-2.3c-0.2-0.4-0.3-0.8-0.1-1.2
		c1.3-5.5,2.3-11,4.9-16c2.7-5.2,3.3-11.3,1.7-16.9c-1.1-4.1-2.5-8.1-4-12c-1.2-3.2-2.8-3.5-5.4-1.2c-5.2,4.9-9.3,10.8-11.9,17.4
		c-1,2.4-1.7,4.9-2.6,7.4c-0.7,2.2-1.3,4.4-0.2,6.9c-0.7-0.5-1-0.8-1.3-1c-6.5-5.7-12.9-11.3-19.4-17c-0.5-0.4-0.9-1-1.3-1.4
		c-0.9-0.8-1.7-1.6-2.6-2.3c-0.9-0.7-2-1.5-3-2.3l5.6-4.8c0.2-0.2,0.4-0.3,0.6-0.4c2.6-0.5,5.1-1.1,7.7-1.5c2.1-0.3,4.1-0.4,6.2-0.5
		c7.7-0.6,15-3.1,21.4-7.5c4.3-2.9,9.2-6.4,9.5-9s-2.7-4.1-5.6-5.4c-2.4-1-4.8-1.7-7.3-2.1c-1.2-0.1-27.2-6.5-28.4-6.3
		c0,0,32.7-4,39.7-3.6c6.9,0.4,17.5,6.2,24.7,2.9c1.8-0.9,3.6-1.9,5.3-3.1c0.3-0.2,0.2-5.4-4.5-8.4c-9.1-5.7-26.2-10.9-26.2-10.9
		s23.1,1.1,31.8,5.8c5.2,2.8,7.1,5.5,10.5,6.6s4.4,1.2,6.4,0.9c1-0.2,1.2,0.4,1.9-0.3c1.3-1.1,8.7-3.8,8.5-14.7
		c-5.4-11.7-16.4-19.3-16.4-19.3s20.9,11.7,28.3,14.4c4.4,1.8,9,2.9,13.8,3.1c1.5,0.1,3-0.1,4.4-0.4c2.1-0.5,3.7-2.2,3.9-4.4
		c0.4-2.5,0.1-5-0.6-7.4c-2.1-8.1-5.7-15.8-10.7-22.5c-0.3-0.4-0.6-0.9-0.9-1.3c0.8-0.9,1.5-0.6,2.2-0.1c2.4,1.7,4.5,3.9,6.2,6.4
		c2.7,3.9,5.3,7.9,7.8,12c2.9,5,5.7,10.2,8.5,15.3c1.8,3.5,4.4,6.4,7.7,8.6c2.6,1.6,2.7,1.5,5.4,2.8c1.5,0.7,2.7-0.9,3.7-2.2
		c1.7-1.7-0.1-3.6-0.4-6c-0.3-1.9-15.5-35-15.5-35s21.4,24.6,21.9,25.3c3.4,4.3,15.2,24.6,19.3,28.7c2.9,2.9,6,5.4,9.4,7.7
		c0.3,0.2,0.8,0.4,1.2,0.4c-0.2-0.6-0.4-1.1-0.7-1.7c-6.2-14.2-13.5-27.8-21.9-40.8c-3.5-5.4-7.1-10.8-10.6-16.2
		c-0.4-0.5-0.7-1.1-1-1.7c1.9,0.3,3.8,1.1,5.2,2.5c0.7,0.7,1.3,1.5,2,2.3l49.9,62.3c0.7,0.9,1.6,1.8,2.5,2.6
		c1.3,1.3,3.3,1.6,4.9,0.8c1.6-0.7,2.5-2.3,2.4-4c0.1-2.3,0-4.5,0.2-6.8c0.6-5.1,1.4-10.1,2.2-15.2c0.1-0.5,0.3-1.1,0.5-1.6
		c0.4,0.7,0.7,1.2,1,1.7c3.5,7.2,5.8,14.9,7.9,22.6c0.9,3.2,1.6,6.5,2.5,9.7c1.7,6.8,6.2,12.5,12.4,15.7c0.5,0.3,1.1,0.6,1.6,0.9
		c1.2,0.6,1.9,1.8,1.8,3.2c0,1.2,0.1,2.5,0.2,3.8c0.1,2.5,1.6,4.8,3.8,5.9c0.2,0.1,0.4,0.3,0.5,0.5l-23.9,11.7
		c-0.3-0.2-0.5-0.4-0.7-0.6c-6.2-6-13.3-11.1-21.1-14.9c-6.6-3.4-13.2-7-19.8-10.4c-5.9-3.2-12.2-5.7-18.8-7.3
		c-1.3-0.3-2.6-0.6-3.8-0.8c-0.1,0-0.2-0.1-0.3-0.2c10.5-0.2,20,3.2,29.7,6.9c-0.2-0.2-0.4-0.4-0.6-0.6c-0.2-0.2-0.5-0.4-0.7-0.5
		c-4.2-2.7-8.4-5.5-12.8-8c-8.8-5.2-18-9.8-27.5-13.8c-2-0.8-3.9-1.4-6.2-2.2c0.1,0.9,0.2,1.5,0.3,2c0.6,2.6,1.2,5.2,1.7,7.9
		c0.8,3.4-0.3,7-2.9,9.2c-1.6,1.5-3,3.3-4.1,5.2c-2.1,3.4-2.3,7.6-0.4,11.1c1.4,2.6,3.2,5.1,5.3,7.2c0.7,0.7,1.2,1.6,1.9,2.4
		c0.5,0.6,1.1,1.2,1.7,1.8c2.4,2.1,2.6,3.6,0.8,6.2c-1.7,2.3-3,4.8-3.8,7.4c-1.1,3.8-0.8,7.2,1.9,10.2c2.4,2.7,4.8,5.3,7.3,7.9
		c1.7,1.7,3.7,3.4,5.6,5c0.5,0.4,0.9,0.7,1.6,1.3l-6.6,3.3c-0.2-0.5-0.3-0.9-0.4-1.3c-1.2-4.3-3.8-8.1-7.5-10.7
		c-1.6-1.2-3.4-2.1-5.2-3.2c-0.9-0.5-1.8-1-2.6-1.6c-1.3-0.8-1.8-2.5-1.1-3.9c0.4-1,0.9-1.9,1.5-2.9c1-1.8,1.9-3.6,2.6-5.4
		c1.7-4.9,0.5-9.1-3.7-12.2c-1.3-1-2.7-1.8-4.1-2.5c-7.6-3.5-15.7-6.2-23.9-7.9c-9.2-1.9-18.7-1.1-27.4,2.2c-6,2.3-11.2,6.3-15,11.4
		c-3.5,4.6-6.4,9.7-8.7,15c-1.4,3.4-2.2,7-2.3,10.7c-0.4,3.9-0.6,7.9-1.1,11.8C122.7,193.8,122.5,197.5,122.6,201.2z M204.3,96.5
		c0.9-0.5,2.1-0.7,3.1-0.4c1.2,0.2,2.3,0.5,3.5,0.6c1.7,0.1,2.5-0.6,2.8-2.3c0.3-1.9-0.3-2.9-2.4-3.3c-2.7-0.5-5.3-1.3-7.9-2.2
		c-2.2-0.7-4.5-1.3-6.7-1.9c-3.4-1-7-1.7-10.5-2c-3.1-0.3-6.3,0.8-8.4,3.2c-0.9,1-1.7,2-2.5,3.1c-2,3.1-3.9,6.3-5.9,9.4
		c-0.4,0.7-0.8,1.5-1,2.3c-0.4,0.9,0.1,2,1,2.4c0,0,0,0,0,0c0.1,0,0.1,0,0.2,0.1c0.8,0.3,1.6,0.5,2.4,0.6c4.9,0.7,9.8,1.3,14.7,2.2
		c4.5,0.8,9,1.7,13,4.1c0.5,0.3,1,0.5,1.5,0.6c3.3,1.1,6.1-0.6,6.5-4.1c0.1-1.2,0-2.5-0.3-3.7c-0.6-2-1.6-3.9-2.3-5.8
		C204.9,98.4,204.6,97.5,204.3,96.5z M127.9,111.9h0.2c0,0.4,0,0.8,0,1.2c0.2,1.8,1.2,2.7,3,2.4c1.1-0.2,2.1-0.5,3.1-1
		c1.7-0.7,3.3-1.5,4.9-2.3c4.8-2.3,9.8-4.1,15-5.2c4-0.8,7.6-2.8,10.3-5.7c3-3.3,5.3-7,6.9-11.1c0.2-0.4,0.3-0.9,0.4-1.4
		c0.3-1.8-0.4-2.7-2.2-2.9c-0.8-0.1-1.7,0-2.5,0.1l-14.6,2.6l-15.8,2.8c-2.7,0.3-4.8,2.4-5.2,5.1c-0.6,2.8-1.4,5.6-2,8.4
		C128.8,107.3,128.4,109.6,127.9,111.9L127.9,111.9z M127.5,95.6c-1,0.3-1.7,0.6-2.5,0.9c-3.9,1.7-7.6,3.9-10.9,6.5
		c-3.2,2.4-6.5,4.7-9.7,7c-1,0.7-1.9,1.4-2.8,2.2c-3.5,3.2-5.2,7.8-4.5,12.5c0.3,3.4,1.5,6.6,2.4,9.9c0.2,0.6,0.5,1.1,0.9,1.5
		c1.2,1.5,3.3,1.4,4.2-0.3c1.2-2.4,3.2-4.1,4.9-6.1c1.2-1.5,2.8-2.7,4.5-3.6c3.6-1.7,6.4-4.5,8.1-8c1-2.1,1.8-4.3,2.4-6.6
		C125.6,106.3,126.5,101.1,127.5,95.6z M145.4,114.1c-0.4,0.1-0.9,0.1-1.3,0.3c-2.4,0.8-4.8,1.5-7.1,2.5c-4.8,2.1-9.5,4.4-14.3,6.6
		c-1.1,0.6-2.2,1.2-3.1,2.1c-2.2,1.8-3.4,4.6-3.2,7.4c0.2,2.1,0.1,4.2-0.1,6.2c-0.3,2.1,0.8,3.3,2.9,3.1c1.9-0.1,3.8-0.5,5.6-1.1
		c3.1-1,4.2-3.3,3.4-6.5c-0.2-0.9-0.6-1.8-0.7-2.8c-0.6-2.9,0.4-5,3.2-6.2c1.2-0.5,2.3-0.9,3.6-1.2
		C139.5,123,143.2,119.6,145.4,114.1L145.4,114.1z"/>
	<path class="st3" d="M234.9,128.2c0.5,1.4,0.6,2.8,0.2,4.2c-0.5,2.3-0.2,4.7,0.9,6.8c0.7,1.6,1.5,3.1,2.4,4.6
		c2,3.4,3.6,6.9,2.6,10.9c0.2,0.2,0.3,0.3,0.4,0.3c1.5-0.3,2.6,0.5,3.9,1.2c2,1.2,4.1,2.1,6.2,3.1c2.1,1,4.5,2,6.6,3.2
		c2.5,1.4,4.4,3.6,5.4,6.3c0.1,0.3,0.2,0.6,0.3,0.9c0,0.2,0,0.4,0,0.7l-5.7,2.8c-4,2-8.1,3.8-12,5.9c-1.5,0.9-3.4,0.7-4.6-0.4
		c-1-0.9-1.9-1.8-2.6-2.9c-1.4-2-2.7-4.1-4.1-6.1c-4.7-6.7-6.5-14.2-6.2-22.3c0.1-6.1,1.9-12.1,5.1-17.3
		C234,129.5,234.4,129,234.9,128.2z"/>
	<path class="st3" d="M265.7,169.5c-0.3-1,0-2.1,0.8-2.7l1.7,1.4L265.7,169.5z"/>
	<path class="st3" d="M103.1,220.5c10.8,19.6,26.1,32.8,48.2,37.3l0.5,4.9c-3.1-1.1-6-2.2-8.9-3.2c-3-1-6.1-1.7-9.2-1.9
		c0.3,0.5,0.4,0.8,0.6,1.1c4.7,6.7,9.3,13.4,14,20.1c1.4,2.1,3.1,3.9,5.1,5.5c0.4,0.3,0.7,0.8,0.8,1.3c0.5,3.9,0.9,7.9,1,12
		c-0.3-0.5-0.6-1.1-1-1.6c-2.7-4.9-5.9-9.4-9.5-13.6c-5.2-5.9-11.6-10.2-19.4-11.8c-2.6-0.5-5.2-0.8-7.8-0.9c-1.6,0-3.2-0.2-4.7-0.7
		c-0.5-0.2-0.9-0.3-1.4-0.3c-1.5-0.3-2.9,0.7-3.2,2.1c-0.1,0.4-0.1,0.8,0,1.2c0.2,0.7,0.4,1.4,0.7,2c0.6,1.5,1.3,2.9,1.8,4.5
		c3,9.3,8.7,16.6,16.4,22.5c5.7,4.2,11.8,7.9,18.2,11c4,2,8.1,3.8,12.3,5.8c0.1,1.3,0.3,2.9,0.5,4.7c-0.5-0.1-1-0.1-1.4-0.3
		c-2.9-1.3-5.8-2.4-8.6-4c-3.5-2-6.9-4.3-10.3-6.5c-2.8-2-6-3.5-9.3-4.5c-0.3-0.1-0.7-0.1-1.3-0.2c0.7,1.3,1.3,2.4,2,3.5
		c1.2,2,2.5,3.9,3.6,6c0.8,1.6,1.5,3.2,2,4.9c0.6,2.2,0.4,4.6-0.6,6.6c-0.5,1.1-0.9,2.3-1.3,3.5c-0.9,3.2,0,5.4,2.8,7.2
		c0.5,0.3,1.1,0.6,1.6,0.8c0.5,0.3,2.1,0.8,4.1,1.7c2.4,1,5.3,2.5,7,4.2c0.6,0.5,4.9,3.8,8.4,8.9c1.7,2.5,5.8,7.7,5.8,7.7
		s0.6,6.3,0.6,6.7c-0.1,0.6-14.4-17.8-14.4-17.8s-1.7-1.8-3-3c-1.2-1.1-2.6-2.3-4-2.9c-1.1-0.5-2.3-1.1-3.3-1.6
		c-2-0.9-3.6-1.7-4-1.9c-3.3-1.3-6.7-2.4-10.1-3.6c-4.3-1.3-8.4-3.1-12.2-5.5c-0.5-0.4-1.1-0.4-1.7-0.1c-0.9,0.3-1.8,0.6-2.7,0.8
		c-3.3,0.9-4.4,2.2-4.7,5.8l-9.7-8.1l0.1-0.4c1.2-0.1,2.4-0.2,3.7-0.2c1.2,0,2.4,0.2,3.6,0.3c2.7,0.4,5.4-0.6,7.3-2.6
		c1.8-1.8,2.9-4.2,3-6.7c0.4-6.4-1.8-11.7-7.1-15.5c-0.5-0.3-1-0.6-1.6-0.9c-2.3-1.2-5.2-0.9-7.2,0.8c-1.6,1.2-3,2.8-4,4.5
		c-0.4,0.7-0.8,1.4-1.3,2.1c-0.7,1.1-2,1.7-3.3,1.6c-0.6-1.5-0.6-3.1-0.2-4.6c0.4-1.8,1.1-3.5,1.9-5.2c3.4-6.3,4.9-13.6,4.1-20.8
		c-0.3-3.5-0.9-7-1.6-10.4c-0.3-1.3-0.8-2.6-1.6-3.8c-1-1.9-3.4-2.7-5.3-1.7c0,0,0,0-0.1,0h-0.1c-1.5,0.7-2.8,1.6-3.9,2.7
		c-2.6,2.7-5,5.6-7.4,8.5c-1.5,1.7-2.9,3.6-4.4,5.5c-0.2,0.3-0.5,0.5-0.9,0.9c-0.2-0.5-0.3-1-0.4-1.5c-0.5-3.4-0.2-6.8,0.9-10.1
		c2.3-6.5,3.8-13.3,4.6-20.2c0.8-7,0.7-14.1-0.2-21.1c-0.2-1.2-0.5-2.3-1-3.4c-0.6-1.8-2.6-2.8-4.4-2.2c-3.8,0.9-7.4,2.9-10.2,5.7
		c-1.9,1.8-3.5,3.9-5.3,5.8c-0.9,0.9-1.7,1.7-2.7,2.8c-1.2-1.9-1.4-4.3-0.5-6.3c0.9-2.2,1.7-4.4,2.6-6.7c2.2-5.8,4-11.8,5.3-17.9
		c1.2-5.7,1.3-11.5,0.2-17.2c-0.2-1-0.6-2.1-1-3.1c-2-4.9-5.8-7.5-11-8c-5.2-0.5-10.1,0.5-15,2c-2,0.6-3.9,1.3-6.1,2l-0.6-3.3
		c5.6-3.7,11.1-7.8,16.3-12.1c2.8-2.4,5.5-4.9,8.1-7.5c2.7-2.8,4.9-6.1,6.5-9.7c2.1,2.1,13.2,11.7,14.7,13.4
		c-2.5,8.8-0.8,17.3,3.7,24.9c1.7,3.1,4.5,5.5,7.9,6.6c1.7,0.5,3.5,1.3,5.2,1.7c1.7,0.5,2.8-0.1,3-2c0.3-2.6,0.2-5.1,0.3-7.7
		c0-1.5,0.5-3.3,0.6-5c0.9,0.6,1.7,1.3,2.5,2c5.9,5.1,20.8,19,26.2,23.7c7.5,6.5,14.9,13.1,22.4,19.6c5.3,4.4,8.9,10.5,10.1,17.3
		c0.1,0.5,0.1,1.1-0.1,1.6l-1.3-1.3c-9.6-9.8-21-17.8-33.4-23.6c-3.2-1.5-6.5-2.6-10-3.2C104.6,220.6,103.8,220.5,103.1,220.5z
		 M126.4,267.2l1.3,0.1c0.4,0,0.8,0.1,1.2,0c1.3-0.1,1.7-0.5,1.6-1.8c-0.1-0.9-0.5-1.7-1-2.4c-1.5-2.1-3.1-4.1-4.6-6.1
		c-3.3-4.4-6.8-8.6-10.7-12.5c-5.5-5.4-11.8-9.4-19.4-11.2c-1.3-0.3-2.6-0.6-4-0.9c-2.4-0.3-3.7,1.2-2.8,3.5c0.2,0.5,0.4,1,0.7,1.5
		c1.5,2.9,3,5.7,4.5,8.6c2.2,4.2,4.5,8.4,6.7,12.7c1,2.3,3.1,3.9,5.5,4.3c2.8,0.5,5.6,1.3,8.4,2
		C117.9,265.8,122.1,267.2,126.4,267.2L126.4,267.2z M103.8,231.1c-0.1-0.3-0.1-0.6-0.3-0.9c-3.5-6.2-6.9-12.4-10.5-18.5
		c-1-1.7-2.3-3.3-3.6-4.8c-3.2-3.6-7.5-3.6-12-3.6c0.2,1.5,0.3,2.8,0.4,4.1c0.4,3.6,1.1,7.1,2.1,10.5c1.3,4.7,4.9,8.4,9.5,10
		c3,1,6.2,1.8,9.3,2.5C100.4,230.6,102,230.8,103.8,231.1L103.8,231.1z"/>
	<path class="st2" d="M198.2,343.1c1.1,1.2,2,2.1,3,3c1.9,1.9,3.9,3.8,5.8,5.8c1.1,1.1,2.1,2.4,3.1,3.6c3.3,4.3,4.6,9.8,3.4,15.1
		c0,0.3,0,0.5-0.1,0.8c0.4-0.2,0.7-0.5,1-0.7c4.7-4.7,10.7-7.9,17.2-9.1c1-0.2,2-0.3,3.1-0.3c3.1,0,4.8,1.8,4.9,4.9
		c0,1.6-0.2,3.2-0.4,4.7c-0.5,5.2-1.3,10.4-2.5,15.4c-2,7.6-5.8,14-12.4,18.5c-1.6,1.2-2.7,2.8-3.2,4.7c-0.2,0.5-0.3,1.1-0.5,1.6
		c-1,2.5-2.8,4-5.6,3.9c-2.1-0.1-4.1-0.4-6.1-0.9c-1.8-0.5-2.2-1.6-1.6-3.4c0.1-0.3,0.2-0.6,0.4-0.8c1.4-2.2,1.7-4.8,2-7.3
		c1.7-18.4-1.9-37-10.5-53.4C198.1,347.3,197.8,345.2,198.2,343.1z"/>
	<path class="st2" d="M204.2,401.5c-0.2,0-0.4,0-0.5-0.1c-5.1-4.5-9.3-9.6-10.9-16.4c-0.4-1.9-0.7-3.8-0.9-5.8
		c-0.5-6.2-1.5-12.4-2.8-18.5c-1.2-6-2.5-12-3.7-18c0-0.2,0-0.5,0.2-0.7c0.3,0.5,0.7,0.9,1,1.4c6.2,9.7,10.8,20.4,13.6,31.6
		c2,8.3,3.3,16.8,4,25.3C204.2,400.8,204.2,401.1,204.2,401.5z"/>
	<path class="st2" d="M204.9,94.2c0.3,1,0.6,2,1,2.9c0.8,2,1.8,3.9,2.4,5.9c0.4,1.2,0.5,2.5,0.3,3.8c-0.4,3.6-3.2,5.3-6.6,4.1
		c-0.5-0.2-1-0.4-1.5-0.6c-4.1-2.5-8.7-3.4-13.3-4.2c-5-0.9-10-1.5-14.9-2.2c-0.8-0.1-1.7-0.3-2.5-0.6c-1-0.3-1.6-1.3-1.3-2.3
		c0,0,0,0,0,0c0-0.1,0-0.1,0.1-0.2c0.2-0.8,0.6-1.6,1-2.3c1.9-3.2,3.9-6.4,5.9-9.6c0.8-1.1,1.6-2.1,2.5-3.1c2.2-2.4,5.3-3.6,8.5-3.2
		c3.6,0.4,7.2,1.1,10.7,2.1c2.3,0.6,4.6,1.2,6.8,1.9c2.6,1,5.3,1.7,8,2.2c2.1,0.3,2.7,1.4,2.4,3.3c-0.3,1.7-1.1,2.4-2.9,2.3
		c-1.2-0.1-2.4-0.4-3.6-0.6C207,93.6,205.9,93.7,204.9,94.2z"/>
	<path class="st2" d="M127.2,109.9c0.4-2.3,0.9-4.6,1.4-6.9c0.6-2.8,1.4-5.7,2-8.5c0.4-2.7,2.6-4.8,5.3-5.2l16.1-2.9
		c4.9-0.9,9.9-1.8,14.9-2.7c0.8-0.2,1.7-0.2,2.5-0.1c1.9,0.2,2.6,1.1,2.3,3c-0.1,0.5-0.2,0.9-0.4,1.4c-1.6,4.2-4.1,8.1-7.1,11.4
		c-2.8,3-6.5,5-10.5,5.8c-5.3,1.2-10.4,3-15.3,5.3c-1.6,0.8-3.3,1.6-5,2.3c-1,0.5-2,0.8-3.1,1c-1.9,0.3-2.9-0.6-3.1-2.5
		c0-0.4,0-0.8,0-1.3L127.2,109.9z"/>
	<path class="st2" d="M126.8,93.3c-1.1,5.6-2,10.9-3.1,16.2c-0.5,2.3-1.3,4.5-2.4,6.7c-1.7,3.6-4.7,6.5-8.3,8.2
		c-1.8,0.9-3.4,2.1-4.7,3.7c-1.7,2-3.7,3.8-5,6.2c-0.9,1.8-3,1.8-4.2,0.3c-0.4-0.5-0.7-1-0.9-1.6c-0.9-3.3-2.1-6.6-2.4-10.1
		c-0.6-4.7,1.1-9.5,4.7-12.7c0.9-0.8,1.8-1.6,2.8-2.3c3.3-2.4,6.6-4.7,9.9-7.1c3.4-2.7,7.1-4.9,11.1-6.6
		C125,93.9,125.8,93.6,126.8,93.3z"/>
	<path class="st2" d="M145,112.2c-2.2,5.6-5.9,9-11.4,10.6c-1.2,0.3-2.4,0.7-3.6,1.2c-2.8,1.3-3.8,3.3-3.3,6.3
		c0.2,1,0.5,1.9,0.7,2.8c0.8,3.3-0.3,5.6-3.4,6.6c-1.9,0.6-3.8,0.9-5.7,1.1c-2.1,0.2-3.2-1-2.9-3.1c0.2-2.1,0.3-4.2,0.1-6.3
		c-0.2-2.9,1-5.7,3.3-7.6c1-0.8,2-1.5,3.2-2.1c4.8-2.3,9.6-4.6,14.5-6.7c2.3-1,4.8-1.7,7.2-2.6C144.1,112.4,144.5,112.3,145,112.2z"
		/>
	<path class="st2" d="M125.7,268c-4.4,0-8.6-1.5-13-2.4c-2.9-0.6-5.6-1.4-8.5-2c-2.5-0.4-4.6-2.1-5.7-4.4c-2.2-4.3-4.5-8.6-6.8-12.9
		l-4.6-8.6c-0.3-0.5-0.5-1-0.7-1.5c-0.8-2.3,0.5-3.9,2.9-3.6c1.4,0.2,2.7,0.6,4.1,0.9c7.7,1.9,14.1,5.9,19.8,11.4
		c3.9,4,7.6,8.2,10.9,12.7c1.6,2.1,3.2,4.1,4.7,6.2c0.5,0.7,0.9,1.6,1,2.5c0.2,1.3-0.3,1.8-1.6,1.8c-0.4,0-0.8,0-1.3,0L125.7,268z"
		/>
	<path class="st2" d="M102.7,231.3c-1.8-0.3-3.5-0.5-5.1-0.9c-3.2-0.8-6.4-1.5-9.5-2.5c-4.7-1.5-8.4-5.4-9.7-10.2
		c-1-3.5-1.8-7.1-2.1-10.7c-0.2-1.3-0.3-2.7-0.4-4.2c4.6,0.1,8.9,0.1,12.2,3.7c1.4,1.5,2.7,3.2,3.8,4.9c3.6,6.2,7.1,12.6,10.7,18.9
		C102.6,230.6,102.6,230.9,102.7,231.3z"/>
	<path class="st3" d="M173.7,439.9c-2.9-1.7-8.6-7.4-12.1-10.6c-28.5-26.5-57.1-52.9-85.7-79.3c-12.7-11.7-25.2-23.3-38-34.9
		c-3.7-3.3-6-7.8-6.6-12.7c-1.8-12.9-3.9-25.8-5.9-38.7c-2.1-13.5-4.1-27-6.2-40.5c-2.1-13.5-4.2-27-6.3-40.5
		c-1.9-12-3.7-24-5.5-36.1C6,137,4.5,127.4,3.1,117.8c-0.2-2,0.2-8.6,0.8-10.5c1.3-4.6,8-9.9,12.1-11.7
		c50.2-23.2,100.4-46.4,150.6-69.6c13.5-6.2,27-12.4,40.5-18.7c3.7-1.9,10-3.5,13.9-3.5c3.9,0,11.8,3.3,15.2,6
		c41.4,30.7,82.7,61.5,124.1,92.2c4.5,3.4,9.1,6.8,13.6,10.1c3.3,2.3,5.4,6,5.6,10c0.6,7.9,1.2,15.8,1.7,23.7
		c1,12.6,1.9,25.1,2.9,37.7c1,12,1.9,24,2.9,36l1.4,17.8c1,12,2,24,2.8,36c1,13.4,1.7,26.8,2.6,40.2c0.1,0.5,0.1,6.9,0,7.2
		c-0.4,5-3.1,9.6-7.3,12.4c-1.2,0.8-2.4,1.5-3.7,2.2L197.7,436.2c-3.9,2.1-8.2,4.3-12.3,5.2C181.8,442,176.8,442.1,173.7,439.9z
		 M370.6,128.2c0,0-204.1,100.5-206.1,101.6c-3.7,1.8-5.9,5.6-5.7,9.6c0,1.1,19.1,175.7,20.2,186.1c1.1,8.4,3.2,8.6,9.4,5.6
		c15.8-8.6,177.4-96.4,189.4-102.9c7.6-4.4,8-9,7.6-13.8C384.9,306.2,370.6,128.2,370.6,128.2z M143.2,220.2
		c8.3,7.5,16.7,2.2,19,1.1C179.9,212.6,369,119.8,369,119.8S232.8,18.5,229.7,16.2c-3.6-3.3-9.9-5.2-18-1.2
		c-23.9,11-195.1,90.7-197,92.5L143.2,220.2z M170.1,425.2c0,0-18.6-174.7-19.2-178.1c-1.3-7.2-5.1-13-10.6-17.8
		C100.6,194.5,11.8,114.1,11.8,114.1s27.1,181.7,27.4,182.4c1,9.7,3.6,11.7,8.2,15.7C67.2,330.1,170.1,425.2,170.1,425.2z"/>
	<path class="st4" d="M285.2,150.8c-1.7-3.3-3.2-6.2-11.6-8.9c-8.1-0.1-13.1-1.4-13.1-1.4l1,1.5c0,0,10,11.6,13.6,12.9
		c3.7,1.4,13.8,3.2,13.8,3.2S286.9,154.1,285.2,150.8z M277.2,152.3c-1.6,0-3-1.3-3-2.9s1.3-2.9,3-2.9s3,1.3,3,2.9
		S278.8,152.3,277.2,152.3z"/>
</g>
</svg>
