<svg id="Layer_1" data-name="Layer 1" xmlns="http://www.w3.org/2000/svg" viewBox="0 0 390.83 438.07"><defs><style>.cls-1{fill:#080f4f;}.cls-2{fill:#d1a000;}</style></defs><title>logo azul y dorado</title><g id="Layer_3" data-name="Layer 3"><polygon id="blanc_background" data-name="blanc background" class="cls-1" points="174.95 434.1 32.95 305.3 3.15 109.6 9.25 97.2 214.95 3.8 229.45 9.2 344.55 95.4 372.15 114.2 382.55 231.1 387.95 317.5 379.73 326.56 182.05 434.1 174.95 434.1"/></g><g id="Layer_1-2" data-name="Layer 1"><path class="cls-2" d="M167.2,301.6a9.06,9.06,0,0,1,1.1,1.6c2.9,4.5,5.7,9.1,8.6,13.6a67.83,67.83,0,0,0,8.8,11.2,36.74,36.74,0,0,0,10.8,7.5,24.15,24.15,0,0,1,8.2,6c2.5,2.8,4.8,5.6,7.2,8.4,1.3,1.5,2.6,3.1,4,4.5a7.82,7.82,0,0,0,8.6,2.3c3.2-1.1,6.4-2.2,9.5-3.5a4.7,4.7,0,0,0,3.2-5.2c-1.5-14.3-4.8-28-12.8-40.2a62.3,62.3,0,0,0-8-9.8c-1.3-1.3-2.5-2.6-3.8-3.8a9.34,9.34,0,0,0-1.5-1.3,3.7,3.7,0,0,0-5.3.4h0c-.1.1-.2.2-.2.3a8.45,8.45,0,0,0-1.3,2.7,17.23,17.23,0,0,0-.2,7.5c.4,1.8,0,2.8-1.1,3.4s-2.4.4-3.7-.8c-6.7-6.6-14.9-10.3-23.8-12.5-2.9-.7-5.9-.9-8.8-1.4l-1.2-.2-.5-4.8a26.71,26.71,0,0,1,6.3.4,57.25,57.25,0,0,1,17,5.9c2.6,1.3,5.4,2.6,7.5,4.8a3.59,3.59,0,0,0,1,.7c1.2.7,2.3.6,2.9-.6,1.4-2.6,2.7-5.3,3.9-8,.8-1.9.1-3.6-1.4-5a9.06,9.06,0,0,0-1.6-1.1c-9.5-5.3-18-12.1-26.2-19.3-2.1-1.8-4-3.7-6.1-5.6a7.55,7.55,0,0,0-1.4-1.1c-1.5-1-2.5-.7-3.3.9a6,6,0,0,0-.6,1.9,6.19,6.19,0,0,1-.7,1.9c-.5-4.9-1.1-9.7-1.7-14.9.8.7,1.3,1.1,1.7,1.5a287.24,287.24,0,0,0,26.2,21.7c2.8,2,5.7,4,8.6,5.9a111.56,111.56,0,0,1,29.5,27.4,83.23,83.23,0,0,1,13.8,30.8,113.13,113.13,0,0,1,3,25.9c0,13.3-3.3,25.7-11,36.8-2.7,3.9-5.2,7.9-7.8,11.8a4.1,4.1,0,0,1-1.6,1.6c-4.7,2.6-9.5,5.3-14.4,7.9-.6-.4-1.1-.8-1.7-1.2-2.9-1.7-5.8-3.6-8.7-5.3a16.57,16.57,0,0,0-3.7-1.4,9.82,9.82,0,0,1-7.1-6.7c-.3-.8-.5-1.6-.9-2.6a9,9,0,0,1,1.9.4c2.6.7,5.2,1.4,7.9,2.1a14.54,14.54,0,0,0,5.5.1c-.5-.6-.7-1-1.1-1.4-3.7-4.4-7.5-8.8-11.2-13.2a76,76,0,0,0-12.9-11.8c-1.5-1.1-2.4-2.2-2.3-4.1a10,10,0,0,0-.2-1.6c2.4,1.6,4.6,3.1,7,4.5a30.82,30.82,0,0,0,7.5,3.2c-2.3-16.9-4.7-33.7-11.7-49.3h-.4c0,1.2.1,2.4.2,3.6.4,3.4,1,6.9,1.4,10.3a32.22,32.22,0,0,1,.2,9.3,5.28,5.28,0,0,1-.8,2.2c-.2-.6-.5-1.3-.7-2l-3.6-16.2a25.75,25.75,0,0,0-3.6-9.3,3.61,3.61,0,0,1-.6-2c-.8-7.1-1.5-14.1-2.3-21.2-.1-1.4-.3-2.7-.4-4.1Zm31,39.4a8.18,8.18,0,0,0,1,5.9,93.68,93.68,0,0,1,10.2,52.5c-.2,2.5-.5,5-2,7.2-.1.3-.3.5-.3.8-.6,1.7-.1,2.9,1.6,3.3a31.09,31.09,0,0,0,6,.9c2.7.1,4.5-1.3,5.5-3.8.2-.5.3-1,.5-1.5a8,8,0,0,1,3.2-4.6c6.5-4.4,10.2-10.7,12.2-18.2a112,112,0,0,0,2.5-15.2,35.7,35.7,0,0,0,.4-4.6c0-3.1-1.7-4.8-4.8-4.8a15.26,15.26,0,0,0-3,.3,31.79,31.79,0,0,0-16.9,9,3.59,3.59,0,0,1-1,.7v-.7a18.1,18.1,0,0,0-3.4-14.9q-1.35-1.8-3-3.6c-1.9-2-3.8-3.8-5.7-5.7-1-.9-1.8-1.9-3-3Zm5.9,57.3v-1a174.29,174.29,0,0,0-3.9-24.9,102.15,102.15,0,0,0-13.4-31.1c-.3-.5-.7-.9-1-1.4a.84.84,0,0,0-.2.7c1.2,5.9,2.5,11.8,3.7,17.7a160,160,0,0,1,2.8,18.2,26.18,26.18,0,0,0,.9,5.6c1.6,6.7,5.7,11.7,10.7,16.1.1.1.2.1.4.1Z" transform="translate(-3.55 -3.7)"/><path class="cls-2" d="M302.3,163.3l16.2-8a24.91,24.91,0,0,0,.8,3.2,13.89,13.89,0,0,0,3.9,5.9c5.8,5.7,10.7,12.1,15.6,18.4a33.57,33.57,0,0,0,2.4,2.9,9.76,9.76,0,0,0,1.8,1.7c1.6,1.2,2.7,1,3.7-.7a11.3,11.3,0,0,0,1.1-2.2,15,15,0,0,1,2.8-4.6c.2.6.4,1,.5,1.4a33.51,33.51,0,0,1-4.9,28,58.1,58.1,0,0,1-9.5,10.9,29.38,29.38,0,0,1-10.4,5.7,54.15,54.15,0,0,0-12.6,5.5,44.27,44.27,0,0,0-7.9,6.4,19,19,0,0,1-2.1,1.9,2.07,2.07,0,0,1-2.9-.4,2,2,0,0,1-.2-2.6,13,13,0,0,1,1-1.5c2.6-4.1,4.1-8.4,3.5-13.4a21.47,21.47,0,0,0-2.7-7.7,36.15,36.15,0,0,0-6.5-8,63.73,63.73,0,0,0-15.4-11.3,34.53,34.53,0,0,0-19.5-3.4,8.91,8.91,0,0,0-7.6,5.3,8.17,8.17,0,0,1-1.2,2,2.33,2.33,0,0,1-2.6.8,2.46,2.46,0,0,1-1.9-2.2,8.6,8.6,0,0,1,.1-1.6c.3-2.7.3-3.1-.6-5.5,1-.5,2.1-1.1,3.2-1.6,8.7-4.3,17.3-8.5,26-12.8a2.89,2.89,0,0,1,3.1.1,44.67,44.67,0,0,1,15.8,13.8c1.6,2.2,3.1,4.5,4.6,6.9a56.15,56.15,0,0,0,7.6,10,29.94,29.94,0,0,0,13.3,7.8,23.29,23.29,0,0,1,2.8,1.1c.8.3,1.5.7,2.3,1a1.88,1.88,0,0,0,2.4-.6,2.44,2.44,0,0,0,.6-2.8,8,8,0,0,0-1.3-1.9,23.65,23.65,0,0,0-5.4-4c-3.8-2.3-7.5-4.8-11.2-7.4a66.09,66.09,0,0,1-5.8-4.7,32.07,32.07,0,0,1-7.6-10.3,33.09,33.09,0,0,0-7.3-10.5c-1.1-1.1-2.4-2-3.8-3.2,1.7-.8,3.2-1.6,4.7-2.3a2.06,2.06,0,0,1,1.5.3A25.15,25.15,0,0,1,301,176a88.46,88.46,0,0,0,9.7,11.4,33.55,33.55,0,0,0,15.1,8.8,5.9,5.9,0,0,0,1.4.2,2.85,2.85,0,0,0-.6-2.4c-.3-.5-.7-1-1-1.5-.9-1.3-.9-2.1.1-3a2.25,2.25,0,0,1,3.2-.4h0l.2.2c.9.7,1.6,1.5,2.4,2.1a3,3,0,0,0,3.1.7c-.5-.6-.8-1.2-1.2-1.7a184.06,184.06,0,0,0-13.8-15.5c-3.2-3.4-6.4-6.8-9.5-10.2-1.5-1.6-2.3-1.7-3.8-.6C304,165.9,303.6,165.8,302.3,163.3Z" transform="translate(-3.55 -3.7)"/><path class="cls-2" d="M228.9,199.7l-4.6,4-1.9-1.3,6.3-3.1Z" transform="translate(-3.55 -3.7)"/><path class="cls-2" d="M131.33,208.52,102.4,182.9c1.4-2.5,3.8-2.8,6.2-3.7a5.42,5.42,0,0,1-1.1-.6,9.84,9.84,0,0,1-5.7-6.7c-.6-2.1-1-4.3-1.4-6.5-.3-1.1-.6-2.3-1.1-3.8a43.28,43.28,0,0,0-5.6,13.3,9.53,9.53,0,0,1-2.9-2.3,1.29,1.29,0,0,1-.1-1.2c1.3-5.5,2.3-11,4.9-16a23.08,23.08,0,0,0,1.7-16.9,120.55,120.55,0,0,0-4-12c-1.2-3.2-2.8-3.5-5.4-1.2A48.27,48.27,0,0,0,76,142.7c-1,2.4-1.7,4.9-2.6,7.4-.7,2.2-1.3,4.4-.2,6.9-.7-.5-1-.8-1.3-1L52.5,139a16.61,16.61,0,0,1-1.3-1.4c-.9-.8-1.7-1.6-2.6-2.3s-2-1.5-3-2.3l5.6-4.8a2.09,2.09,0,0,1,.6-.4c2.6-.5,5.1-1.1,7.7-1.5,2.1-.3,4.1-.4,6.2-.5a43.43,43.43,0,0,0,21.4-7.5c4.3-2.9,9.2-6.4,9.5-9s-2.7-4.1-5.6-5.4a31.94,31.94,0,0,0-7.3-2.1c-1.2-.1-27.2-6.5-28.4-6.3,0,0,32.7-4,39.7-3.6s17.5,6.2,24.7,2.9a40.67,40.67,0,0,0,5.3-3.1c.3-.2.2-5.4-4.5-8.4C111.1,77.7,94,72.5,94,72.5s23.1,1.1,31.8,5.8c5.2,2.8,7.1,5.5,10.5,6.6s4.4,1.2,6.4.9c1-.2,1.2.4,1.9-.3,1.3-1.1,8.7-3.8,8.5-14.7-5.4-11.7-16.4-19.3-16.4-19.3S157.6,63.2,165,65.9A40.75,40.75,0,0,0,178.8,69a16,16,0,0,0,4.4-.4,5,5,0,0,0,3.9-4.4,16.84,16.84,0,0,0-.6-7.4,64.86,64.86,0,0,0-10.7-22.5c-.3-.4-.6-.9-.9-1.3.8-.9,1.5-.6,2.2-.1a25.18,25.18,0,0,1,6.2,6.4q4,5.85,7.8,12c2.9,5,5.7,10.2,8.5,15.3a22.75,22.75,0,0,0,7.7,8.6,39.54,39.54,0,0,0,5.4,2.8c1.5.7,2.7-.9,3.7-2.2,1.7-1.7-.1-3.6-.4-6-.3-1.9-15.5-35-15.5-35s21.4,24.6,21.9,25.3c3.4,4.3,15.2,24.6,19.3,28.7a63.16,63.16,0,0,0,9.4,7.7,2.45,2.45,0,0,0,1.2.4,12.2,12.2,0,0,0-.7-1.7,285.69,285.69,0,0,0-21.9-40.8c-3.5-5.4-7.1-10.8-10.6-16.2a9.5,9.5,0,0,1-1-1.7,9.41,9.41,0,0,1,5.2,2.5c.7.7,1.3,1.5,2,2.3l49.9,62.3a20.35,20.35,0,0,0,2.5,2.6,4.27,4.27,0,0,0,4.9.8,4,4,0,0,0,2.4-4c.1-2.3,0-4.5.2-6.8.6-5.1,1.4-10.1,2.2-15.2a9.83,9.83,0,0,1,.5-1.6c.4.7.7,1.2,1,1.7,3.5,7.2,5.8,14.9,7.9,22.6.9,3.2,1.6,6.5,2.5,9.7a24.23,24.23,0,0,0,12.4,15.7c.5.3,1.1.6,1.6.9a3.23,3.23,0,0,1,1.8,3.2c0,1.2.1,2.5.2,3.8a7,7,0,0,0,3.8,5.9,1.21,1.21,0,0,1,.5.5l-23.9,11.7a4.35,4.35,0,0,1-.7-.6,82.28,82.28,0,0,0-21.1-14.9c-6.6-3.4-13.2-7-19.8-10.4a78,78,0,0,0-18.8-7.3c-1.3-.3-2.6-.6-3.8-.8-.1,0-.2-.1-.3-.2,10.5-.2,20,3.2,29.7,6.9l-.6-.6a3,3,0,0,0-.7-.5c-4.2-2.7-8.4-5.5-12.8-8a227.86,227.86,0,0,0-27.5-13.8c-2-.8-3.9-1.4-6.2-2.2.1.9.2,1.5.3,2,.6,2.6,1.2,5.2,1.7,7.9a9.28,9.28,0,0,1-2.9,9.2,23,23,0,0,0-4.1,5.2,11,11,0,0,0-.4,11.1,31.14,31.14,0,0,0,5.3,7.2c.7.7,1.2,1.6,1.9,2.4.5.6,1.1,1.2,1.7,1.8,2.4,2.1,2.6,3.6.8,6.2a24.77,24.77,0,0,0-3.8,7.4c-1.1,3.8-.8,7.2,1.9,10.2,2.4,2.7,4.8,5.3,7.3,7.9,1.7,1.7,3.7,3.4,5.6,5,.5.4.9.7,1.6,1.3l-6.6,3.3a9.29,9.29,0,0,1-.4-1.3,19.39,19.39,0,0,0-7.5-10.7c-1.6-1.2-3.4-2.1-5.2-3.2a22.61,22.61,0,0,1-2.6-1.6,3,3,0,0,1-1.1-3.9,20,20,0,0,1,1.5-2.9,44.34,44.34,0,0,0,2.6-5.4c1.7-4.9.5-9.1-3.7-12.2a25,25,0,0,0-4.1-2.5,111.67,111.67,0,0,0-23.9-7.9,49.2,49.2,0,0,0-27.4,2.2,33.9,33.9,0,0,0-15,11.4,72.41,72.41,0,0,0-8.7,15,30.18,30.18,0,0,0-2.3,10.7,48.26,48.26,0,0,0,.45,13.64A92.13,92.13,0,0,0,131.33,208.52Zm73.47-112a4.19,4.19,0,0,1,3.1-.4c1.2.2,2.3.5,3.5.6,1.7.1,2.5-.6,2.8-2.3.3-1.9-.3-2.9-2.4-3.3a54.46,54.46,0,0,1-7.9-2.2c-2.2-.7-4.5-1.3-6.7-1.9a54,54,0,0,0-10.5-2,9.89,9.89,0,0,0-8.4,3.2,37.62,37.62,0,0,0-2.5,3.1c-2,3.1-3.9,6.3-5.9,9.4a9.43,9.43,0,0,0-1,2.3,1.88,1.88,0,0,0,1,2.4h0c.1,0,.1,0,.2.1a10.55,10.55,0,0,0,2.4.6c4.9.7,9.8,1.3,14.7,2.2,4.5.8,9,1.7,13,4.1a4.71,4.71,0,0,0,1.5.6c3.3,1.1,6.1-.6,6.5-4.1a11.6,11.6,0,0,0-.3-3.7c-.6-2-1.6-3.9-2.3-5.8C205.4,98.4,205.1,97.5,204.8,96.5Zm-76.4,15.4h.2v1.2c.2,1.8,1.2,2.7,3,2.4a11.24,11.24,0,0,0,3.1-1c1.7-.7,3.3-1.5,4.9-2.3a66.66,66.66,0,0,1,15-5.2,19.19,19.19,0,0,0,10.3-5.7,35.64,35.64,0,0,0,6.9-11.1,5.73,5.73,0,0,0,.4-1.4c.3-1.8-.4-2.7-2.2-2.9a10.48,10.48,0,0,0-2.5.1l-14.6,2.6-15.8,2.8a5.94,5.94,0,0,0-5.2,5.1c-.6,2.8-1.4,5.6-2,8.4-.6,2.4-1,4.7-1.5,7Zm-.3-16.3c-1,.3-1.7.6-2.5.9a49.9,49.9,0,0,0-10.9,6.5c-3.2,2.4-6.5,4.7-9.7,7a30.13,30.13,0,0,0-2.8,2.2,14,14,0,0,0-4.5,12.5c.3,3.4,1.5,6.6,2.4,9.9a3.77,3.77,0,0,0,.9,1.5,2.44,2.44,0,0,0,4.2-.3c1.2-2.4,3.2-4.1,4.9-6.1a14.32,14.32,0,0,1,4.5-3.6,17,17,0,0,0,8.1-8,37.09,37.09,0,0,0,2.4-6.6C126.1,106.3,127,101.1,128.1,95.6Zm17.8,18.6a6.11,6.11,0,0,0-1.3.3c-2.4.8-4.8,1.5-7.1,2.5-4.8,2.1-9.5,4.4-14.3,6.6a13,13,0,0,0-3.1,2.1,8.82,8.82,0,0,0-3.2,7.4,32,32,0,0,1-.1,6.2c-.3,2.1.8,3.3,2.9,3.1a21.39,21.39,0,0,0,5.6-1.1c3.1-1,4.2-3.3,3.4-6.5a22.91,22.91,0,0,1-.7-2.8c-.6-2.9.4-5,3.2-6.2a21.72,21.72,0,0,1,3.6-1.2c5.3-1.6,8.9-5,11.1-10.4Z" transform="translate(-3.55 -3.7)"/><path class="cls-2" d="M235.5,128.3a6.72,6.72,0,0,1,.2,4.2,10,10,0,0,0,.9,6.8,40.18,40.18,0,0,0,2.4,4.6c2,3.4,3.6,6.9,2.6,10.9.2.2.3.3.4.3,1.5-.3,2.6.5,3.9,1.2,2,1.2,4.1,2.1,6.2,3.1s4.5,2,6.6,3.2a11.93,11.93,0,0,1,5.4,6.3l.3.9v.7l-5.7,2.8c-4,2-8.1,3.8-12,5.9a3.9,3.9,0,0,1-4.6-.4,14.23,14.23,0,0,1-2.6-2.9c-1.4-2-2.7-4.1-4.1-6.1-4.7-6.7-6.5-14.2-6.2-22.3a34.2,34.2,0,0,1,5.1-17.3A5,5,0,0,1,235.5,128.3Z" transform="translate(-3.55 -3.7)"/><path class="cls-2" d="M266.2,169.5a2.48,2.48,0,0,1,.8-2.7l1.7,1.4Z" transform="translate(-3.55 -3.7)"/><path class="cls-2" d="M103.6,220.5c10.8,19.6,26.1,32.8,48.2,37.3l.5,4.9c-3.1-1.1-6-2.2-8.9-3.2a36.75,36.75,0,0,0-9.2-1.9c.3.5.4.8.6,1.1,4.7,6.7,9.3,13.4,14,20.1a24.19,24.19,0,0,0,5.1,5.5,2.22,2.22,0,0,1,.8,1.3,116.47,116.47,0,0,1,1,12,14,14,0,0,0-1-1.6,80.78,80.78,0,0,0-9.5-13.6c-5.2-5.9-11.6-10.2-19.4-11.8a51.79,51.79,0,0,0-7.8-.9,14.87,14.87,0,0,1-4.7-.7,3.53,3.53,0,0,0-1.4-.3,2.74,2.74,0,0,0-3.2,2.1,2.44,2.44,0,0,0,0,1.2,11.76,11.76,0,0,0,.7,2c.6,1.5,1.3,2.9,1.8,4.5,3,9.3,8.7,16.6,16.4,22.5a115.89,115.89,0,0,0,18.2,11c4,2,8.1,3.8,12.3,5.8.1,1.3.3,2.9.5,4.7a5.77,5.77,0,0,1-1.4-.3c-2.9-1.3-5.8-2.4-8.6-4-3.5-2-6.9-4.3-10.3-6.5a32,32,0,0,0-9.3-4.5,12.29,12.29,0,0,0-1.3-.2c.7,1.3,1.3,2.4,2,3.5,1.2,2,2.5,3.9,3.6,6a29.65,29.65,0,0,1,2,4.9,9.39,9.39,0,0,1-.6,6.6,36.16,36.16,0,0,0-1.3,3.5c-.9,3.2,0,5.4,2.8,7.2a11.94,11.94,0,0,0,1.6.8c.5.3,2.1.8,4.1,1.7a23.3,23.3,0,0,1,7,4.2,42.77,42.77,0,0,1,8.4,8.9c1.7,2.5,5.8,7.7,5.8,7.7s.6,6.3.6,6.7c-.1.6-14.4-17.8-14.4-17.8s-1.7-1.8-3-3a15.67,15.67,0,0,0-4-2.9c-1.1-.5-2.3-1.1-3.3-1.6-2-.9-3.6-1.7-4-1.9-3.3-1.3-6.7-2.4-10.1-3.6a49.63,49.63,0,0,1-12.2-5.5,1.5,1.5,0,0,0-1.7-.1,27.59,27.59,0,0,1-2.7.8c-3.3.9-4.4,2.2-4.7,5.8l-9.7-8.1.1-.4c1.2-.1,2.4-.2,3.7-.2s2.4.2,3.6.3a8.39,8.39,0,0,0,7.3-2.6,10.12,10.12,0,0,0,3-6.7c.4-6.4-1.8-11.7-7.1-15.5-.5-.3-1-.6-1.6-.9a6.55,6.55,0,0,0-7.2.8,15.63,15.63,0,0,0-4,4.5,23.92,23.92,0,0,1-1.3,2.1,3.59,3.59,0,0,1-3.3,1.6,7.26,7.26,0,0,1-.2-4.6,25,25,0,0,1,1.9-5.2,35.69,35.69,0,0,0,4.1-20.8,90,90,0,0,0-1.6-10.4,11.43,11.43,0,0,0-1.6-3.8,4,4,0,0,0-5.3-1.7h-.2a13.58,13.58,0,0,0-3.9,2.7c-2.6,2.7-5,5.6-7.4,8.5-1.5,1.7-2.9,3.6-4.4,5.5a7.53,7.53,0,0,1-.9.9,8.33,8.33,0,0,1-.4-1.5,21.69,21.69,0,0,1,.9-10.1,92.51,92.51,0,0,0,4.6-20.2,87.63,87.63,0,0,0-.2-21.1,13.31,13.31,0,0,0-1-3.4,3.51,3.51,0,0,0-4.4-2.2,21.61,21.61,0,0,0-10.2,5.7c-1.9,1.8-3.5,3.9-5.3,5.8-.9.9-1.7,1.7-2.7,2.8a6.73,6.73,0,0,1-.5-6.3c.9-2.2,1.7-4.4,2.6-6.7a122.7,122.7,0,0,0,5.3-17.9,43.32,43.32,0,0,0,.2-17.2,18.61,18.61,0,0,0-1-3.1c-2-4.9-5.8-7.5-11-8s-10.1.5-15,2c-2,.6-3.9,1.3-6.1,2l-.6-3.3a190.87,190.87,0,0,0,16.3-12.1q4.2-3.6,8.1-7.5a33.69,33.69,0,0,0,6.5-9.7c2.1,2.1,13.2,11.7,14.7,13.4-2.5,8.8-.8,17.3,3.7,24.9a14,14,0,0,0,7.9,6.6c1.7.5,3.5,1.3,5.2,1.7s2.8-.1,3-2c.3-2.6.2-5.1.3-7.7,0-1.5.5-3.3.6-5a24.33,24.33,0,0,1,2.5,2c5.9,5.1,20.8,19,26.2,23.7,7.5,6.5,14.9,13.1,22.4,19.6a29,29,0,0,1,10.1,17.3,2.92,2.92,0,0,1-.1,1.6l-1.3-1.3a115.1,115.1,0,0,0-33.4-23.6,38.92,38.92,0,0,0-10-3.2A4.49,4.49,0,0,0,103.6,220.5ZM127,267.2l1.3.1a4.82,4.82,0,0,0,1.2,0c1.3-.1,1.7-.5,1.6-1.8a5.13,5.13,0,0,0-1-2.4c-1.5-2.1-3.1-4.1-4.6-6.1a115.71,115.71,0,0,0-10.7-12.5c-5.5-5.4-11.8-9.4-19.4-11.2-1.3-.3-2.6-.6-4-.9-2.4-.3-3.7,1.2-2.8,3.5a10.09,10.09,0,0,0,.7,1.5c1.5,2.9,3,5.7,4.5,8.6,2.2,4.2,4.5,8.4,6.7,12.7A7.33,7.33,0,0,0,106,263c2.8.5,5.6,1.3,8.4,2,4.1.8,8.3,2.2,12.6,2.2Zm-22.6-36.1a3.18,3.18,0,0,0-.3-.9c-3.5-6.2-6.9-12.4-10.5-18.5a33.4,33.4,0,0,0-3.6-4.8c-3.2-3.6-7.5-3.6-12-3.6.2,1.5.3,2.8.4,4.1a61,61,0,0,0,2.1,10.5,14.86,14.86,0,0,0,9.5,10c3,1,6.2,1.8,9.3,2.5,1.6.2,3.3.4,5.1.7Z" transform="translate(-3.55 -3.7)"/><path class="cls-2" d="M174.3,439.9c-2.9-1.7-8.6-7.4-12.1-10.6Q119.45,389.55,76.5,350c-12.7-11.7-25.2-23.3-38-34.9a20.23,20.23,0,0,1-6.6-12.7c-1.8-12.9-3.9-25.8-5.9-38.7-2.1-13.5-4.1-27-6.2-40.5l-6.3-40.5c-1.9-12-3.7-24-5.5-36.1-1.5-9.6-2.9-19.3-4.4-28.9a46.05,46.05,0,0,1,.8-10.5c1.3-4.6,8-9.9,12.1-11.7L167.1,25.9c13.5-6.2,27-12.4,40.5-18.7a36.56,36.56,0,0,1,13.9-3.5c3.9,0,11.8,3.3,15.2,6q62.1,46.05,124.1,92.2c4.5,3.4,9.1,6.8,13.6,10.1a13,13,0,0,1,5.6,10c.6,7.9,1.2,15.8,1.7,23.7,1,12.6,1.9,25.1,2.9,37.7,1,12,1.9,24,2.9,36l1.4,17.8c1,12,2,24,2.8,36,1,13.4,1.7,26.8,2.6,40.2.1.5.1,6.9,0,7.2A16.54,16.54,0,0,1,387,333c-1.2.8-2.4,1.5-3.7,2.2l-185.1,101c-3.9,2.1-8.2,4.3-12.3,5.2C182.3,442,177.3,442.1,174.3,439.9ZM371.2,128.3S167.1,228.8,165.1,229.9c-3.7,1.8-6.82,5.2-6.62,9.2,0,1.1,19.1,175.7,20.2,186.1,1.1,8.4,4.12,9,10.32,6,15.8-8.6,177.4-96.4,189.4-102.9,7.6-4.4,8-9,7.6-13.8C385.5,306.2,371.2,128.3,371.2,128.3ZM143.7,220.2c8.3,7.5,16.7,2.2,19,1.1,17.7-8.7,206.9-101.5,206.9-101.5S233.4,18.5,230.2,16.2c-3.6-3.3-9.9-5.2-18-1.2-23.9,11-195.1,90.7-197,92.5Zm26.9,205S152,250.5,151.4,247.1c-1.3-7.2-5.1-13-10.6-17.8C101.2,194.5,12.3,114.1,12.3,114.1S39.4,295.8,39.7,296.5c1,9.7,3.6,11.7,8.2,15.7C67.7,330.1,170.6,425.2,170.6,425.2Z" transform="translate(-3.55 -3.7)"/></g></svg>