<svg xmlns="http://www.w3.org/2000/svg" viewBox="0 0 154 154"><defs><style>.cls-1{fill:#464038;}.cls-2{fill:#272220;}</style></defs><title>octagon plus weird border</title><g id="Layer_2" data-name="Layer 2"><g id="Layer_2-2" data-name="Layer 2"><path class="cls-1" d="M130,49l7-11V23h17V0H132V17H115l-10,8H49L39,17H22V0H0V23H17V38l7,11v56l-7,11v15H0v23H22V137H39l10-8h56l10,8h17v17h22V131H137V116l-7-11V49Zm7-44h12V17H137ZM17,149H5V137H17ZM17,17H5V5H17ZM137,137h12v12H137Zm-5-19v14H116l-8-7H46l-8,7H22V118l7-12V48L22,36V22H38l8,7h62l8-7h16V36l-7,12v58Z"/><path class="cls-2" d="M145,49.54v55.92L105.46,145H49.54L10,105.46V49.54L49.54,10h55.92ZM102.56,17H52.44L17,52.44v50.12L52.44,138h50.12L138,102.56V52.44Z"/></g></g></svg>